<?xml version="1.0" encoding="UTF-8"?>
<svg id="Layer_4" data-name="Layer 4" xmlns="http://www.w3.org/2000/svg" viewBox="0 0 22.84 27.52">
  <defs>
    <style>
      .cls-1 {
        fill: #e0e9e9;
      }

      .cls-1, .cls-2, .cls-3 {
        stroke-width: 0px;
      }

      .cls-4 {
        stroke-width: .05px;
      }

      .cls-4, .cls-5 {
        fill: none;
        stroke: #fff;
        stroke-miterlimit: 10;
      }

      .cls-5 {
        stroke-width: .1px;
      }

      .cls-2 {
        fill: #4b6064;
      }

      .cls-3 {
        fill: #708f93;
      }
    </style>
  </defs>
  <path class="cls-1" d="M11.33,22.49c-3.53,0-6.39-2.86-6.39-6.39s2.86-6.39,6.39-6.39h0v-4.43c-.14,0-.42,0-.57.01C4.79,5.62.2,10.71.51,16.68c.31,5.97,5.41,10.56,11.38,10.25l-.23-4.45c-.11,0-.22.02-.33.02Z"/>
  <path class="cls-3" d="M11.33,5.29v4.43c3.53,0,6.39,2.86,6.39,6.39s-2.68,6.19-6.05,6.37l.23,4.45c5.83-.31,10.26-4.98,10.26-10.81s-4.85-10.83-10.83-10.83Z"/>
  <g>
    <path class="cls-2" d="M7.92,17.68v-.72h-1.2v-.6l1.27-2.27h.47v2.27h.36v.6h-.36v.72h-.54ZM7.92,16.35v-1.22l-.67,1.22h.67Z"/>
    <path class="cls-2" d="M9.11,16.85l.54-.07c.03.27.13.4.32.4.13,0,.23-.07.31-.2s.13-.4.15-.81c-.07.1-.15.17-.24.22s-.19.08-.29.08c-.22,0-.42-.11-.59-.32-.17-.21-.26-.5-.26-.85,0-.38.09-.67.27-.89s.4-.32.67-.32c.3,0,.54.14.73.42s.29.74.29,1.39-.1,1.13-.3,1.42-.46.43-.78.43c-.22,0-.4-.07-.55-.22-.14-.15-.24-.37-.28-.67ZM10.39,15.35c0-.22-.04-.4-.13-.52-.08-.12-.18-.18-.29-.18s-.19.05-.26.15c-.07.1-.1.26-.1.5s.04.4.11.51c.08.11.17.16.28.16s.2-.05.27-.15c.08-.1.11-.26.11-.46Z"/>
    <path class="cls-2" d="M11.5,17.68v-.69h.56v.69h-.56Z"/>
    <path class="cls-2" d="M13.63,17.68v-.72h-1.2v-.6l1.27-2.27h.47v2.27h.36v.6h-.36v.72h-.54ZM13.63,16.35v-1.22l-.67,1.22h.67Z"/>
    <path class="cls-2" d="M14.73,14.44c0-.19.03-.33.1-.42s.16-.13.27-.13.21.04.28.13.1.23.1.42-.03.33-.1.42-.16.13-.27.13-.21-.04-.28-.13c-.07-.09-.1-.23-.1-.42ZM14.99,14.44c0,.13.01.22.03.26.02.04.05.06.08.06s.07-.02.09-.06c.02-.04.03-.13.03-.26s-.01-.22-.03-.26c-.02-.04-.05-.06-.09-.06s-.06.02-.09.06c-.02.04-.03.13-.03.26ZM15.36,16.09h-.24l.91-2.2h.23l-.9,2.2ZM15.89,15.54c0-.19.03-.33.1-.42s.16-.13.27-.13.21.04.27.13.1.23.1.42-.03.33-.1.42c-.07.09-.16.13-.27.13s-.21-.04-.28-.13-.1-.23-.1-.42ZM16.14,15.54c0,.13.01.22.03.26.02.04.05.06.09.06s.06-.02.09-.06c.02-.04.03-.13.03-.26s-.01-.22-.03-.26c-.02-.04-.05-.06-.09-.06s-.07.02-.09.06c-.02.04-.03.13-.03.26Z"/>
  </g>
  <circle class="cls-5" cx="11.33" cy="16.12" r="7.08"/>
  <circle class="cls-5" cx="11.33" cy="16.12" r="10.27"/>
  <circle class="cls-4" cx="11.33" cy="16.12" r="9.93"/>
  <g>
    <path class="cls-2" d="M6.88,2.39h-.3l-.12-.38h-.55l-.11.38h-.29l.53-1.67h.29l.55,1.67ZM6.37,1.73l-.19-.62-.19.62h.37Z"/>
    <path class="cls-2" d="M7.28,2.39h-.26v-1.21h.24v.17c.04-.08.08-.13.11-.16.03-.03.07-.04.11-.04.06,0,.12.02.17.06l-.08.28s-.08-.05-.12-.05c-.04,0-.07.01-.1.04-.03.03-.05.08-.06.15-.01.07-.02.2-.02.39v.37Z"/>
    <path class="cls-2" d="M8.35,2.01l.26.05c-.03.12-.09.21-.16.27-.07.06-.16.09-.27.09-.15,0-.26-.05-.34-.15-.09-.11-.14-.27-.14-.48s.05-.36.14-.49c.08-.1.18-.15.31-.15.14,0,.25.05.33.16.09.12.14.3.14.53v.04h-.66c0,.1.02.17.06.22s.09.08.15.08c.08,0,.14-.06.17-.17ZM8.36,1.68c0-.09-.02-.17-.06-.21-.04-.05-.08-.07-.14-.07-.06,0-.1.02-.14.07-.04.05-.06.12-.06.21h.39Z"/>
    <path class="cls-2" d="M9.03,1.55l-.24-.05c.03-.12.08-.21.14-.26.07-.05.16-.08.29-.08.11,0,.2.02.25.05s.1.07.13.13c.02.05.04.15.04.29v.37c0,.1,0,.18.01.23,0,.05.02.11.05.16h-.26l-.03-.13c-.04.05-.09.09-.14.12-.05.03-.11.04-.16.04-.1,0-.18-.03-.24-.1s-.09-.15-.09-.26c0-.07.01-.13.04-.18.02-.05.06-.09.11-.12.05-.03.12-.06.22-.08.12-.03.21-.05.25-.08,0-.07,0-.11-.01-.13,0-.02-.03-.04-.05-.05-.03-.01-.06-.02-.11-.02s-.08.01-.11.03c-.03.02-.05.06-.07.12ZM9.38,1.81s-.09.03-.16.05c-.08.02-.13.04-.16.07-.03.03-.04.06-.04.1,0,.05.01.09.04.12.03.03.06.05.1.05.04,0,.07-.01.11-.04.04-.03.06-.06.08-.09.01-.03.02-.1.02-.19v-.06Z"/>
    <path class="cls-2" d="M10.62,2.39l-.32-1.21h.25l.19.79.17-.79h.25l.17.79.19-.79h.26l-.32,1.21h-.25l-.17-.78-.17.78h-.25Z"/>
    <path class="cls-2" d="M11.92,1.02v-.3h.26v.3h-.26ZM11.92,2.39v-1.21h.26v1.21h-.26Z"/>
    <path class="cls-2" d="M12.9,1.18v.26h-.18v.49c0,.11,0,.17,0,.18.01.03.03.05.06.05.02,0,.06-.01.1-.03l.02.25c-.06.03-.13.05-.21.05-.07,0-.12-.02-.16-.05-.04-.03-.07-.08-.08-.14-.01-.04-.02-.13-.02-.27v-.53h-.12v-.26h.12v-.24l.26-.19v.43h.18Z"/>
    <path class="cls-2" d="M13.35.72v.61c.04-.06.09-.11.14-.14.05-.03.11-.04.16-.04.08,0,.15.02.2.06.05.04.09.1.11.18.02.06.02.15.02.29v.71h-.26v-.64c0-.15,0-.24-.03-.28-.03-.05-.07-.08-.13-.08-.07,0-.12.03-.16.08-.04.05-.06.16-.06.31v.61h-.26V.72h.26Z"/>
    <path class="cls-2" d="M14.19,1.77c0-.12.02-.23.07-.32.05-.1.11-.17.18-.22.08-.05.16-.07.26-.07.16,0,.28.06.38.19.09.13.14.27.14.44,0,.12-.02.24-.07.34-.05.1-.11.18-.19.23-.08.05-.16.08-.25.08-.15,0-.27-.06-.37-.17-.1-.11-.15-.27-.15-.48ZM14.46,1.78c0,.12.02.22.07.28.05.06.11.09.17.09s.12-.03.17-.09c.05-.06.07-.16.07-.28s-.02-.21-.07-.28c-.05-.06-.11-.09-.17-.09s-.12.03-.17.09c-.05.06-.07.16-.07.28Z"/>
    <path class="cls-2" d="M16.07,2.39v-.18c-.04.07-.08.12-.14.15-.06.04-.12.06-.19.06s-.12-.02-.18-.05c-.05-.03-.09-.08-.12-.15-.03-.06-.04-.15-.04-.27v-.77h.26v.56c0,.16,0,.26.01.3,0,.04.03.08.05.1.03.02.06.04.1.04.04,0,.08-.02.12-.05.04-.03.06-.07.07-.12s.02-.15.02-.32v-.51h.26v1.21h-.24Z"/>
    <path class="cls-2" d="M17.04,1.18v.26h-.18v.49c0,.11,0,.17,0,.18.01.03.03.05.06.05.02,0,.06-.01.1-.03l.02.25c-.06.03-.13.05-.21.05-.07,0-.12-.02-.16-.05-.04-.03-.07-.08-.08-.14-.01-.04-.02-.13-.02-.27v-.53h-.12v-.26h.12v-.24l.26-.19v.43h.18Z"/>
    <path class="cls-2" d="M4.29,4.47l.3.04s.02.08.04.09c.02.02.06.03.11.03.06,0,.1,0,.14-.03.02-.01.04-.04.06-.07.01-.03.02-.09.02-.17v-.18c-.04.07-.08.11-.13.15-.05.03-.1.05-.16.05-.11,0-.2-.05-.28-.15-.09-.11-.13-.27-.13-.46,0-.21.04-.36.12-.47.08-.1.18-.16.3-.16.06,0,.12.02.17.05.05.03.1.08.13.15v-.17h.25v1.09c0,.17-.02.3-.05.38s-.08.14-.15.18c-.07.04-.16.06-.28.06-.11,0-.2-.01-.26-.04-.07-.03-.12-.07-.15-.13-.03-.06-.05-.12-.05-.2v-.04ZM4.52,3.76c0,.13.02.22.06.28.04.06.09.09.15.09.06,0,.12-.03.16-.09s.07-.15.07-.27-.02-.22-.06-.28-.1-.09-.16-.09-.11.03-.16.09c-.04.06-.06.15-.06.27Z"/>
    <path class="cls-2" d="M5.74,4.39h-.26v-1.21h.24v.17c.04-.08.08-.13.11-.16.03-.03.07-.04.11-.04.06,0,.12.02.17.06l-.08.28s-.08-.05-.12-.05c-.04,0-.07.01-.1.04-.03.03-.05.08-.06.15-.01.07-.02.2-.02.39v.37Z"/>
    <path class="cls-2" d="M6.17,3.77c0-.12.02-.23.07-.32.05-.1.11-.17.18-.22.08-.05.16-.07.26-.07.16,0,.28.06.38.19.09.13.14.27.14.44,0,.12-.02.24-.07.34-.05.1-.11.18-.19.23-.08.05-.16.08-.25.08-.15,0-.27-.06-.37-.17-.1-.11-.15-.27-.15-.48ZM6.43,3.78c0,.12.02.22.07.28.05.06.11.09.17.09s.12-.03.17-.09c.05-.06.07-.16.07-.28s-.02-.21-.07-.28c-.05-.06-.11-.09-.17-.09s-.12.03-.17.09c-.05.06-.07.16-.07.28Z"/>
    <path class="cls-2" d="M8.26,3.54l-.26.06c-.02-.13-.08-.19-.18-.19-.06,0-.12.03-.16.08-.04.05-.06.15-.06.28,0,.14.02.25.06.31.04.06.09.09.16.09.05,0,.09-.02.12-.05.03-.03.06-.09.07-.18l.26.05c-.05.29-.21.44-.46.44-.16,0-.28-.06-.36-.18-.08-.12-.12-.27-.12-.44,0-.21.04-.37.13-.47.09-.11.2-.16.35-.16.12,0,.21.03.28.09s.13.16.16.29Z"/>
    <path class="cls-2" d="M9.04,4.01l.26.05c-.03.12-.09.21-.16.27-.07.06-.16.09-.27.09-.15,0-.26-.05-.34-.15-.09-.11-.14-.27-.14-.48s.05-.36.14-.49c.08-.1.18-.15.31-.15.14,0,.25.05.33.16.09.12.14.3.14.53v.04h-.66c0,.1.02.17.06.22s.09.08.15.08c.08,0,.14-.06.17-.17ZM9.05,3.68c0-.09-.02-.17-.06-.21-.04-.05-.08-.07-.14-.07-.06,0-.1.02-.14.07-.04.05-.06.12-.06.21h.39Z"/>
    <path class="cls-2" d="M9.77,4.39h-.26v-1.21h.24v.17c.04-.08.08-.13.11-.16.03-.03.07-.04.11-.04.06,0,.12.02.17.06l-.08.28s-.08-.05-.12-.05c-.04,0-.07.01-.1.04-.03.03-.05.08-.06.15-.01.07-.02.2-.02.39v.37Z"/>
    <path class="cls-2" d="M10.14,3.18h.28l.24.86.23-.86h.27l-.35,1.16-.07.23c-.03.08-.06.15-.09.19s-.07.07-.11.09c-.05.02-.1.03-.17.03-.05,0-.1,0-.15-.02l-.02-.25s.08.02.11.02c.05,0,.09-.02.12-.05.03-.03.06-.09.08-.18l-.38-1.21Z"/>
    <path class="cls-2" d="M12.77,4.39h-.24v-.18c-.04.07-.09.12-.14.15-.05.03-.11.05-.17.05-.11,0-.21-.06-.29-.17-.08-.11-.12-.27-.12-.47s.04-.36.12-.47c.08-.11.18-.16.3-.16.06,0,.11.01.16.04.05.03.09.07.13.13v-.6h.26v1.67ZM12.07,3.76c0,.11,0,.19.03.25s.05.09.08.12c.03.03.07.04.12.04.06,0,.11-.03.15-.09.04-.06.06-.16.06-.28,0-.14-.02-.24-.06-.3-.04-.06-.09-.09-.16-.09s-.11.03-.15.09c-.04.06-.06.15-.06.27Z"/>
    <path class="cls-2" d="M13.61,4.01l.26.05c-.03.12-.09.21-.16.27-.07.06-.16.09-.27.09-.15,0-.26-.05-.34-.15-.09-.11-.14-.27-.14-.48s.05-.36.14-.49c.08-.1.18-.15.31-.15.14,0,.25.05.33.16.09.12.14.3.14.53v.04h-.66c0,.1.02.17.06.22s.09.08.15.08c.08,0,.14-.06.17-.17ZM13.62,3.68c0-.09-.02-.17-.06-.21-.04-.05-.08-.07-.14-.07-.06,0-.1.02-.14.07-.04.05-.06.12-.06.21h.39Z"/>
    <path class="cls-2" d="M14.09,4.39v-1.67h.26v1.67h-.26Z"/>
    <path class="cls-2" d="M14.62,3.02v-.3h.26v.3h-.26ZM14.62,4.39v-1.21h.26v1.21h-.26Z"/>
    <path class="cls-2" d="M15.43,4.39l-.4-1.21h.27l.19.62.05.21.06-.21.19-.62h.27l-.4,1.21h-.23Z"/>
    <path class="cls-2" d="M16.8,4.01l.26.05c-.03.12-.09.21-.16.27-.07.06-.16.09-.27.09-.15,0-.26-.05-.34-.15-.09-.11-.14-.27-.14-.48s.05-.36.14-.49c.08-.1.18-.15.31-.15.14,0,.25.05.33.16.09.12.14.3.14.53v.04h-.66c0,.1.02.17.06.22s.09.08.15.08c.08,0,.14-.06.17-.17ZM16.81,3.68c0-.09-.02-.17-.06-.21-.04-.05-.08-.07-.14-.07-.06,0-.1.02-.14.07-.04.05-.06.12-.06.21h.39Z"/>
    <path class="cls-2" d="M17.54,4.39h-.26v-1.21h.24v.17c.04-.08.08-.13.11-.16.03-.03.07-.04.11-.04.06,0,.12.02.17.06l-.08.28s-.08-.05-.12-.05c-.04,0-.07.01-.1.04-.03.03-.05.08-.06.15-.01.07-.02.2-.02.39v.37Z"/>
    <path class="cls-2" d="M17.9,3.18h.28l.24.86.23-.86h.27l-.35,1.16-.07.23c-.03.08-.06.15-.09.19s-.07.07-.11.09c-.05.02-.1.03-.17.03-.05,0-.1,0-.15-.02l-.02-.25s.08.02.11.02c.05,0,.09-.02.12-.05.03-.03.06-.09.08-.18l-.38-1.21Z"/>
  </g>
</svg>