<?xml version="1.0" encoding="UTF-8"?>
<svg id="Layer_2" data-name="Layer 2" xmlns="http://www.w3.org/2000/svg" viewBox="0 0 22.84 27.52">
  <defs>
    <style>
      .cls-1 {
        stroke-width: .05px;
      }

      .cls-1, .cls-2 {
        fill: none;
        stroke: #fff;
        stroke-miterlimit: 10;
      }

      .cls-2 {
        stroke-width: .1px;
      }

      .cls-3 {
        fill: #eee7e3;
      }

      .cls-3, .cls-4, .cls-5 {
        stroke-width: 0px;
      }

      .cls-4 {
        fill: #db9c8a;
      }

      .cls-5 {
        fill: #d9805e;
      }
    </style>
  </defs>
  <path class="cls-3" d="M11.32,22.49c-3.53,0-6.39-2.86-6.39-6.39s2.86-6.39,6.39-6.39h0v-4.43C5.34,5.29.49,10.14.49,16.12s4.85,10.83,10.83,10.83,10.83-4.85,10.83-10.83h-4.44c0,3.52-2.86,6.38-6.39,6.38Z"/>
  <path class="cls-4" d="M11.32,5.29v4.43c3.53,0,6.39,2.86,6.39,6.39,0,0,0,0,0,0h4.44c0-5.98-4.85-10.83-10.83-10.83Z"/>
  <g>
    <path class="cls-5" d="M10.95,17.52v.64h-1.97c.02-.24.09-.47.19-.69.11-.22.32-.5.63-.85.25-.28.4-.47.46-.57.08-.15.13-.29.13-.44,0-.16-.04-.27-.1-.35s-.16-.12-.28-.12c-.25,0-.38.19-.4.56l-.56-.07c.03-.36.14-.63.3-.8.17-.17.39-.26.67-.26.31,0,.54.1.7.3.16.2.23.43.23.69,0,.15-.02.29-.06.43-.04.14-.1.28-.18.41-.08.14-.22.32-.42.53-.18.2-.29.34-.34.4-.05.07-.09.13-.12.19h1.12Z"/>
    <path class="cls-5" d="M11.34,17.24l.56-.07c.01.16.06.28.14.37s.17.13.27.13c.12,0,.21-.06.3-.17.08-.11.12-.29.12-.53,0-.22-.04-.39-.12-.5-.08-.11-.19-.16-.31-.16-.16,0-.31.09-.44.26l-.46-.08.29-1.86h1.49v.64h-1.06l-.09.61c.13-.08.26-.11.39-.11.23,0,.43.09.59.27.2.23.31.54.31.92,0,.31-.09.6-.26.87-.17.26-.42.4-.74.4-.26,0-.48-.08-.65-.26-.17-.17-.28-.41-.32-.73Z"/>
    <path class="cls-5" d="M13.54,14.92c0-.19.03-.33.1-.42s.16-.13.27-.13.21.04.28.13.1.23.1.42-.03.33-.1.42-.16.13-.27.13-.21-.04-.28-.13c-.07-.09-.1-.23-.1-.42ZM13.79,14.92c0,.13.01.22.03.26.02.04.05.06.08.06s.07-.02.09-.06c.02-.04.03-.13.03-.26s-.01-.22-.03-.26c-.02-.04-.05-.06-.09-.06s-.06.02-.09.06c-.02.04-.03.13-.03.26ZM14.16,16.57h-.24l.91-2.2h.23l-.9,2.2ZM14.69,16.03c0-.19.03-.33.1-.42s.16-.13.27-.13.21.04.27.13.1.23.1.42-.03.33-.1.42c-.07.09-.16.13-.27.13s-.21-.04-.28-.13-.1-.23-.1-.42ZM14.95,16.02c0,.13.01.22.03.26.02.04.05.06.09.06s.06-.02.09-.06c.02-.04.03-.13.03-.26s-.01-.22-.03-.26c-.02-.04-.05-.06-.09-.06s-.07.02-.09.06c-.02.04-.03.13-.03.26Z"/>
  </g>
  <circle class="cls-2" cx="11.32" cy="16.12" r="7.08"/>
  <circle class="cls-2" cx="11.32" cy="16.12" r="10.27"/>
  <circle class="cls-1" cx="11.32" cy="16.12" r="9.93"/>
  <g>
    <path class="cls-5" d="M10.8,2.47h-.3l-.12-.38h-.55l-.11.38h-.29l.53-1.67h.29l.55,1.67ZM10.29,1.81l-.19-.62-.19.62h.37Z"/>
    <path class="cls-5" d="M11.19,2.47h-.26v-1.21h.24v.17c.04-.08.08-.13.11-.16.03-.03.07-.04.11-.04.06,0,.12.02.17.06l-.08.28s-.08-.05-.12-.05c-.04,0-.07.01-.1.04-.03.03-.05.08-.06.15-.01.07-.02.2-.02.39v.37Z"/>
    <path class="cls-5" d="M12.26,2.09l.26.05c-.03.12-.09.21-.16.27-.07.06-.16.09-.27.09-.15,0-.26-.05-.34-.15-.09-.11-.14-.27-.14-.48s.05-.36.14-.49c.08-.1.18-.15.31-.15.14,0,.25.05.33.16.09.12.14.3.14.53v.04h-.66c0,.1.02.17.06.22s.09.08.15.08c.08,0,.14-.06.17-.17ZM12.28,1.76c0-.09-.02-.17-.06-.21-.04-.05-.08-.07-.14-.07-.06,0-.1.02-.14.07-.04.05-.06.12-.06.21h.39Z"/>
    <path class="cls-5" d="M12.95,1.63l-.24-.05c.03-.12.08-.21.14-.26.07-.05.16-.08.29-.08.11,0,.2.02.25.05s.1.07.13.13c.02.05.04.15.04.29v.37c0,.1,0,.18.01.23,0,.05.02.11.05.16h-.26l-.03-.13c-.04.05-.09.09-.14.12-.05.03-.11.04-.16.04-.1,0-.18-.03-.24-.1s-.09-.15-.09-.26c0-.07.01-.13.04-.18.02-.05.06-.09.11-.12.05-.03.12-.06.22-.08.12-.03.21-.05.25-.08,0-.07,0-.11-.01-.13,0-.02-.03-.04-.05-.05-.03-.01-.06-.02-.11-.02s-.08.01-.11.03c-.03.02-.05.06-.07.12ZM13.3,1.89s-.09.03-.16.05c-.08.02-.13.04-.16.07-.03.03-.04.06-.04.1,0,.05.01.09.04.12.03.03.06.05.1.05.04,0,.07-.01.11-.04.04-.03.06-.06.08-.09.01-.03.02-.1.02-.19v-.06Z"/>
    <path class="cls-5" d="M4.99,3.85c0-.12.02-.23.07-.32.05-.1.11-.17.18-.22.08-.05.16-.07.26-.07.16,0,.28.06.38.19.09.13.14.27.14.44,0,.12-.02.24-.07.34-.05.1-.11.18-.19.23-.08.05-.16.08-.25.08-.15,0-.27-.06-.37-.17-.1-.11-.15-.27-.15-.48ZM5.26,3.86c0,.12.02.22.07.28.05.06.11.09.17.09s.12-.03.17-.09c.05-.06.07-.16.07-.28s-.02-.21-.07-.28c-.05-.06-.11-.09-.17-.09s-.12.03-.17.09c-.05.06-.07.16-.07.28Z"/>
    <path class="cls-5" d="M6.1,3.26h.15v-.09c0-.11.01-.19.03-.24.02-.05.06-.09.1-.12.05-.03.1-.04.17-.04.07,0,.15.01.22.04l-.03.22s-.08-.02-.12-.02-.06.01-.08.03-.02.06-.02.13v.09h.2v.25h-.2v.96h-.26v-.96h-.15v-.25Z"/>
    <path class="cls-5" d="M7.27,3.26h.15v-.09c0-.11.01-.19.03-.24.02-.05.06-.09.1-.12.05-.03.1-.04.17-.04.07,0,.15.01.22.04l-.03.22s-.08-.02-.12-.02-.06.01-.08.03-.02.06-.02.13v.09h.2v.25h-.2v.96h-.26v-.96h-.15v-.25Z"/>
    <path class="cls-5" d="M7.96,3.85c0-.12.02-.23.07-.32.05-.1.11-.17.18-.22.08-.05.16-.07.26-.07.16,0,.28.06.38.19.09.13.14.27.14.44,0,.12-.02.24-.07.34-.05.1-.11.18-.19.23-.08.05-.16.08-.25.08-.15,0-.27-.06-.37-.17-.1-.11-.15-.27-.15-.48ZM8.23,3.86c0,.12.02.22.07.28.05.06.11.09.17.09s.12-.03.17-.09c.05-.06.07-.16.07-.28s-.02-.21-.07-.28c-.05-.06-.11-.09-.17-.09s-.12.03-.17.09c-.05.06-.07.16-.07.28Z"/>
    <path class="cls-5" d="M9.13,3.85c0-.12.02-.23.07-.32.05-.1.11-.17.18-.22.08-.05.16-.07.26-.07.16,0,.28.06.38.19.09.13.14.27.14.44,0,.12-.02.24-.07.34-.05.1-.11.18-.19.23-.08.05-.16.08-.25.08-.15,0-.27-.06-.37-.17-.1-.11-.15-.27-.15-.48ZM9.4,3.86c0,.12.02.22.07.28.05.06.11.09.17.09s.12-.03.17-.09c.05-.06.07-.16.07-.28s-.02-.21-.07-.28c-.05-.06-.11-.09-.17-.09s-.12.03-.17.09c-.05.06-.07.16-.07.28Z"/>
    <path class="cls-5" d="M11.27,4.47h-.24v-.18c-.04.07-.09.12-.14.15-.05.03-.11.05-.17.05-.11,0-.21-.06-.29-.17-.08-.11-.12-.27-.12-.47s.04-.36.12-.47c.08-.11.18-.16.3-.16.06,0,.11.01.16.04.05.03.09.07.13.13v-.6h.26v1.67ZM10.57,3.84c0,.11,0,.19.03.25s.05.09.08.12c.03.03.07.04.12.04.06,0,.11-.03.15-.09.04-.06.06-.16.06-.28,0-.14-.02-.24-.06-.3-.04-.06-.09-.09-.16-.09s-.11.03-.15.09c-.04.06-.06.15-.06.27Z"/>
    <path class="cls-5" d="M12.97,4.47h-.24v-.18c-.04.07-.09.12-.14.15-.05.03-.11.05-.17.05-.11,0-.21-.06-.29-.17-.08-.11-.12-.27-.12-.47s.04-.36.12-.47c.08-.11.18-.16.3-.16.06,0,.11.01.16.04.05.03.09.07.13.13v-.6h.26v1.67ZM12.27,3.84c0,.11,0,.19.03.25s.05.09.08.12c.03.03.07.04.12.04.06,0,.11-.03.15-.09.04-.06.06-.16.06-.28,0-.14-.02-.24-.06-.3-.04-.06-.09-.09-.16-.09s-.11.03-.15.09c-.04.06-.06.15-.06.27Z"/>
    <path class="cls-5" d="M13.8,4.09l.26.05c-.03.12-.09.21-.16.27-.07.06-.16.09-.27.09-.15,0-.26-.05-.34-.15-.09-.11-.14-.27-.14-.48s.05-.36.14-.49c.08-.1.18-.15.31-.15.14,0,.25.05.33.16.09.12.14.3.14.53v.04h-.66c0,.1.02.17.06.22s.09.08.15.08c.08,0,.14-.06.17-.17ZM13.82,3.76c0-.09-.02-.17-.06-.21-.04-.05-.08-.07-.14-.07-.06,0-.1.02-.14.07-.04.05-.06.12-.06.21h.39Z"/>
    <path class="cls-5" d="M14.2,4.13l.26-.05c.02.13.09.19.21.19.06,0,.11-.01.14-.04s.05-.06.05-.09c0-.03,0-.05-.02-.06-.01-.02-.04-.03-.09-.04-.22-.06-.35-.11-.41-.16-.07-.06-.11-.15-.11-.27s.04-.2.11-.27.17-.1.31-.1.23.03.3.08c.07.05.12.13.14.24l-.25.06c-.02-.1-.08-.15-.19-.15-.06,0-.11,0-.14.03-.03.02-.04.04-.04.07,0,.03.01.05.04.07.02.02.1.05.23.08.15.04.25.09.3.15.05.06.08.14.08.23,0,.12-.04.21-.12.29-.08.08-.19.11-.33.11-.13,0-.23-.03-.31-.09-.08-.06-.13-.16-.16-.28Z"/>
    <path class="cls-5" d="M15.93,4.09l.26.05c-.03.12-.09.21-.16.27-.07.06-.16.09-.27.09-.15,0-.26-.05-.34-.15-.09-.11-.14-.27-.14-.48s.05-.36.14-.49c.08-.1.18-.15.31-.15.14,0,.25.05.33.16.09.12.14.3.14.53v.04h-.66c0,.1.02.17.06.22s.09.08.15.08c.08,0,.14-.06.17-.17ZM15.94,3.76c0-.09-.02-.17-.06-.21-.04-.05-.08-.07-.14-.07-.06,0-.1.02-.14.07-.04.05-.06.12-.06.21h.39Z"/>
    <path class="cls-5" d="M16.67,4.47h-.26v-1.21h.24v.17c.04-.08.08-.13.11-.16.03-.03.07-.04.11-.04.06,0,.12.02.17.06l-.08.28s-.08-.05-.12-.05c-.04,0-.07.01-.1.04-.03.03-.05.08-.06.15-.01.07-.02.2-.02.39v.37Z"/>
    <path class="cls-5" d="M17.61,3.26v.26h-.18v.49c0,.11,0,.17,0,.18.01.03.03.05.06.05.02,0,.06-.01.1-.03l.02.25c-.06.03-.13.05-.21.05-.07,0-.12-.02-.16-.05-.04-.03-.07-.08-.08-.14-.01-.04-.02-.13-.02-.27v-.53h-.12v-.26h.12v-.24l.26-.19v.43h.18Z"/>
    <path class="cls-5" d="M17.7,4.13l.26-.05c.02.13.09.19.21.19.06,0,.11-.01.14-.04s.05-.06.05-.09c0-.03,0-.05-.02-.06-.01-.02-.04-.03-.09-.04-.22-.06-.35-.11-.41-.16-.07-.06-.11-.15-.11-.27s.04-.2.11-.27.17-.1.31-.1.23.03.3.08c.07.05.12.13.14.24l-.25.06c-.02-.1-.08-.15-.19-.15-.06,0-.11,0-.14.03-.03.02-.04.04-.04.07,0,.03.01.05.04.07.02.02.1.05.23.08.15.04.25.09.3.15.05.06.08.14.08.23,0,.12-.04.21-.12.29-.08.08-.19.11-.33.11-.13,0-.23-.03-.31-.09-.08-.06-.13-.16-.16-.28Z"/>
  </g>
</svg>