<?xml version="1.0" encoding="UTF-8"?>
<svg id="Layer_5" data-name="Layer 5" xmlns="http://www.w3.org/2000/svg" viewBox="0 0 22.84 27.52">
  <defs>
    <style>
      .cls-1 {
        fill: #f2653e;
      }

      .cls-1, .cls-2 {
        stroke-width: 0px;
      }

      .cls-2 {
        fill: #231f20;
      }
    </style>
  </defs>
  <g>
    <path class="cls-1" d="M3.49,3.72h-.55l-.22-.57h-1l-.21.57h-.54l.98-2.5h.53l1,2.5ZM2.56,2.73l-.34-.93-.34.93h.68Z"/>
    <path class="cls-1" d="M5.34,2.44l-.47.09c-.02-.09-.05-.17-.11-.21-.06-.05-.13-.07-.22-.07-.12,0-.21.04-.29.12s-.11.22-.11.41c0,.22.04.37.11.46s.17.13.29.13c.09,0,.17-.03.22-.08s.1-.14.12-.27l.47.08c-.05.22-.14.38-.28.49-.14.11-.33.17-.56.17-.27,0-.48-.08-.63-.25s-.24-.4-.24-.7.08-.53.24-.7c.16-.17.37-.25.64-.25.22,0,.4.05.53.14.13.1.22.24.28.43Z"/>
    <path class="cls-1" d="M7.29,2.44l-.47.09c-.02-.09-.05-.17-.11-.21-.06-.05-.13-.07-.22-.07-.12,0-.21.04-.29.12s-.11.22-.11.41c0,.22.04.37.11.46s.17.13.29.13c.09,0,.17-.03.22-.08s.1-.14.12-.27l.47.08c-.05.22-.14.38-.28.49-.14.11-.33.17-.56.17-.27,0-.48-.08-.63-.25s-.24-.4-.24-.7.08-.53.24-.7c.16-.17.37-.25.64-.25.22,0,.4.05.53.14.13.1.22.24.28.43Z"/>
    <path class="cls-1" d="M8.7,3.14l.48.08c-.06.18-.16.31-.29.4-.13.09-.3.14-.5.14-.32,0-.55-.1-.7-.31-.12-.17-.18-.37-.18-.62,0-.3.08-.54.24-.71.16-.17.36-.26.6-.26.27,0,.48.09.64.27.16.18.23.45.22.82h-1.2c0,.14.04.25.12.33.07.08.17.12.28.12.08,0,.14-.02.19-.06s.09-.11.12-.2ZM8.73,2.66c0-.14-.04-.24-.11-.32s-.15-.11-.25-.11c-.1,0-.19.04-.26.11-.07.08-.1.18-.1.31h.72Z"/>
    <path class="cls-1" d="M9.43,3.2l.48-.07c.02.09.06.16.12.21.06.05.15.07.26.07.12,0,.22-.02.28-.07.04-.03.06-.07.06-.13,0-.04-.01-.07-.03-.09-.02-.02-.08-.04-.16-.06-.39-.09-.63-.16-.74-.23-.14-.1-.22-.23-.22-.41,0-.16.06-.29.19-.4.12-.11.32-.16.58-.16s.43.04.55.12c.12.08.2.2.25.36l-.45.08c-.02-.07-.06-.12-.11-.16-.05-.04-.13-.06-.23-.06-.13,0-.22.02-.27.05-.04.03-.05.06-.05.1,0,.03.02.06.05.09.04.03.19.08.45.13.26.06.43.13.54.21.1.08.15.2.15.36,0,.17-.07.31-.21.43-.14.12-.34.18-.62.18-.25,0-.44-.05-.59-.15s-.24-.24-.28-.41Z"/>
    <path class="cls-1" d="M11.37,3.2l.48-.07c.02.09.06.16.12.21.06.05.15.07.26.07.12,0,.22-.02.28-.07.04-.03.06-.07.06-.13,0-.04-.01-.07-.03-.09-.02-.02-.08-.04-.16-.06-.39-.09-.63-.16-.74-.23-.14-.1-.22-.23-.22-.41,0-.16.06-.29.19-.4.12-.11.32-.16.58-.16s.43.04.55.12c.12.08.2.2.25.36l-.45.08c-.02-.07-.06-.12-.11-.16-.05-.04-.13-.06-.23-.06-.13,0-.22.02-.27.05-.04.03-.05.06-.05.1,0,.03.02.06.05.09.04.03.19.08.45.13.26.06.43.13.54.21.1.08.15.2.15.36,0,.17-.07.31-.21.43-.14.12-.34.18-.62.18-.25,0-.44-.05-.59-.15s-.24-.24-.28-.41Z"/>
    <path class="cls-1" d="M15.1,3.72l-.89-2.5h.55l.63,1.85.61-1.85h.54l-.9,2.5h-.54Z"/>
    <path class="cls-1" d="M16.42,2.79c0-.16.04-.31.12-.46.08-.15.19-.26.33-.34.14-.08.3-.12.48-.12.27,0,.5.09.67.27s.26.4.26.68-.09.5-.27.68c-.18.18-.4.27-.67.27-.17,0-.32-.04-.48-.11s-.27-.19-.34-.33c-.08-.15-.12-.32-.12-.53ZM16.91,2.81c0,.18.04.32.13.41s.19.14.32.14.23-.05.31-.14.13-.23.13-.42-.04-.31-.13-.41-.19-.14-.31-.14-.23.05-.32.14-.13.23-.13.41Z"/>
    <path class="cls-1" d="M18.67,1.66v-.44h.48v.44h-.48ZM18.67,3.72v-1.81h.48v1.81h-.48Z"/>
    <path class="cls-1" d="M21.3,3.72h-.45v-.27c-.07.1-.16.18-.26.23-.1.05-.2.08-.3.08-.21,0-.39-.08-.54-.25-.15-.17-.22-.4-.22-.7s.07-.54.22-.7c.14-.16.33-.24.55-.24.2,0,.38.08.53.25v-.9h.48v2.5ZM20.02,2.77c0,.19.03.33.08.42.08.12.19.19.32.19.11,0,.2-.05.28-.14.08-.09.12-.23.12-.42,0-.21-.04-.36-.11-.45s-.17-.14-.29-.14-.21.05-.29.14c-.08.09-.12.23-.12.41Z"/>
  </g>
  <g>
    <path class="cls-2" d="M1.68,7.06v.4h-.4v-.4h.4ZM1.62,7.13h-.27v.27h.27v-.27Z"/>
    <path class="cls-2" d="M2.42,7.84v-1.25h.55c.11,0,.2.01.25.03s.1.06.14.12.05.12.05.19c0,.09-.03.16-.09.22-.06.06-.15.1-.27.12.04.02.08.04.1.06.05.04.09.1.14.17l.22.34h-.21l-.17-.26c-.05-.08-.09-.13-.12-.17-.03-.04-.06-.07-.08-.08s-.05-.03-.08-.03c-.02,0-.05,0-.09,0h-.19v.56h-.17ZM2.58,7.14h.36c.08,0,.14,0,.18-.02.04-.02.08-.04.1-.07.02-.03.03-.07.03-.11,0-.06-.02-.11-.06-.15-.04-.04-.11-.06-.2-.06h-.4v.41Z"/>
    <path class="cls-2" d="M3.6,7.38c0-.17.05-.29.14-.37.08-.07.17-.1.29-.1.12,0,.23.04.31.12.08.08.12.19.12.34,0,.12-.02.21-.05.28-.04.07-.09.12-.15.16-.07.04-.14.06-.22.06-.13,0-.23-.04-.31-.12-.08-.08-.12-.2-.12-.35ZM3.76,7.38c0,.12.03.2.08.26.05.06.11.09.19.09s.14-.03.19-.09.08-.15.08-.27c0-.11-.03-.2-.08-.25-.05-.06-.11-.09-.19-.09s-.14.03-.19.09-.08.14-.08.26Z"/>
    <path class="cls-2" d="M5.22,7.73c-.06.05-.11.08-.16.1-.05.02-.11.03-.17.03-.1,0-.18-.02-.23-.07-.05-.05-.08-.11-.08-.19,0-.04.01-.08.03-.12.02-.04.05-.07.08-.09s.07-.04.11-.05c.03,0,.08-.02.14-.02.12-.02.22-.03.27-.05,0-.02,0-.03,0-.04,0-.06-.01-.11-.04-.13-.04-.03-.1-.05-.17-.05-.07,0-.13.01-.16.04s-.06.07-.08.13l-.15-.02c.01-.06.04-.12.07-.16s.08-.07.14-.09.13-.03.21-.03.14,0,.19.03c.05.02.08.04.11.07.02.03.04.06.05.1,0,.03,0,.07,0,.14v.21c0,.14,0,.23,0,.27,0,.04.02.07.04.11h-.16s-.03-.07-.03-.11ZM5.21,7.38c-.06.02-.14.04-.25.06-.06,0-.11.02-.13.03-.03.01-.05.03-.06.05s-.02.05-.02.07c0,.04.02.07.05.1.03.03.08.04.14.04s.11-.01.16-.04c.05-.03.08-.06.1-.11.02-.03.02-.09.02-.15v-.06Z"/>
    <path class="cls-2" d="M6.19,7.84v-.11c-.06.09-.14.13-.25.13-.07,0-.14-.02-.2-.06-.06-.04-.11-.1-.14-.17-.03-.07-.05-.15-.05-.25s.02-.17.05-.25.08-.13.14-.17c.06-.04.13-.06.2-.06.05,0,.1.01.15.03.04.02.08.05.1.09v-.45h.15v1.25h-.14ZM5.71,7.38c0,.12.02.2.07.26.05.06.11.09.17.09s.12-.03.17-.08c.05-.05.07-.14.07-.25,0-.12-.02-.21-.07-.27-.05-.06-.11-.09-.18-.09s-.12.03-.17.08c-.05.06-.07.14-.07.26Z"/>
    <path class="cls-2" d="M7.11,7.84v-1.25h.17v1.25h-.17Z"/>
    <path class="cls-2" d="M7.55,7.84v-.91h.14v.13c.07-.1.16-.15.29-.15.05,0,.1,0,.15.03s.08.05.1.08c.02.03.04.07.05.11,0,.03,0,.08,0,.15v.56h-.15v-.55c0-.06,0-.11-.02-.14-.01-.03-.03-.06-.06-.07-.03-.02-.07-.03-.11-.03-.07,0-.12.02-.17.06s-.07.12-.07.24v.5h-.15Z"/>
    <path class="cls-2" d="M8.56,7.84v-.79h-.14v-.12h.14v-.1c0-.06,0-.11.02-.14.01-.04.04-.07.08-.1.04-.02.09-.04.16-.04.04,0,.09,0,.14.02l-.02.13s-.06,0-.09,0c-.05,0-.08,0-.1.03-.02.02-.03.06-.03.11v.08h.18v.12h-.18v.79h-.15Z"/>
    <path class="cls-2" d="M9,7.84v-.91h.14v.14c.04-.06.07-.11.1-.13s.06-.03.1-.03c.05,0,.1.02.16.05l-.05.14s-.08-.03-.11-.03c-.03,0-.06.01-.09.03s-.05.05-.06.08c-.02.05-.03.11-.03.18v.47h-.15Z"/>
    <path class="cls-2" d="M10.18,7.73c-.06.05-.11.08-.16.1-.05.02-.11.03-.17.03-.1,0-.18-.02-.23-.07-.05-.05-.08-.11-.08-.19,0-.04.01-.08.03-.12.02-.04.05-.07.08-.09s.07-.04.11-.05c.03,0,.08-.02.14-.02.12-.02.22-.03.27-.05,0-.02,0-.03,0-.04,0-.06-.01-.11-.04-.13-.04-.03-.1-.05-.17-.05-.07,0-.13.01-.16.04s-.06.07-.08.13l-.15-.02c.01-.06.04-.12.07-.16s.08-.07.14-.09.13-.03.21-.03.14,0,.19.03c.05.02.08.04.11.07.02.03.04.06.05.1,0,.03,0,.07,0,.14v.21c0,.14,0,.23,0,.27,0,.04.02.07.04.11h-.16s-.03-.07-.03-.11ZM10.17,7.38c-.06.02-.14.04-.25.06-.06,0-.11.02-.13.03-.03.01-.05.03-.06.05s-.02.05-.02.07c0,.04.02.07.05.1.03.03.08.04.14.04s.11-.01.16-.04c.05-.03.08-.06.1-.11.02-.03.02-.09.02-.15v-.06Z"/>
    <path class="cls-2" d="M10.5,7.57l.15-.02c0,.06.03.11.07.14.04.03.09.05.16.05s.12-.01.16-.04.05-.06.05-.1c0-.04-.02-.06-.04-.08-.02-.01-.07-.03-.16-.05-.11-.03-.19-.05-.23-.07-.04-.02-.08-.05-.1-.09s-.03-.08-.03-.12c0-.04,0-.08.03-.11.02-.03.04-.06.08-.09.02-.02.06-.03.1-.04.04-.01.09-.02.13-.02.07,0,.13.01.19.03.05.02.09.05.12.08.03.04.04.08.05.14l-.15.02s-.03-.08-.06-.11c-.03-.03-.08-.04-.14-.04-.07,0-.12.01-.15.04-.03.02-.05.05-.05.08,0,.02,0,.04.02.05.01.02.03.03.06.04.02,0,.06.02.14.04.11.03.18.05.23.07s.08.05.1.08c.02.04.04.08.04.13s-.02.1-.04.15c-.03.04-.07.08-.13.1s-.12.04-.19.04c-.12,0-.21-.02-.27-.07-.06-.05-.1-.12-.12-.22Z"/>
    <path class="cls-2" d="M11.77,7.7l.02.14s-.08.01-.12.01c-.06,0-.1,0-.13-.03s-.05-.04-.06-.07c-.01-.03-.02-.09-.02-.18v-.52h-.11v-.12h.11v-.22l.15-.09v.32h.15v.12h-.15v.53s0,.07,0,.08c0,.01.01.02.03.03s.03.01.05.01c.02,0,.04,0,.07,0Z"/>
    <path class="cls-2" d="M11.92,7.84v-.91h.14v.14c.04-.06.07-.11.1-.13s.06-.03.1-.03c.05,0,.1.02.16.05l-.05.14s-.08-.03-.11-.03c-.03,0-.06.01-.09.03s-.05.05-.06.08c-.02.05-.03.11-.03.18v.47h-.15Z"/>
    <path class="cls-2" d="M13.1,7.84v-.13c-.07.1-.17.15-.29.15-.05,0-.1-.01-.15-.03s-.08-.05-.1-.08c-.02-.03-.04-.07-.05-.11,0-.03,0-.08,0-.14v-.56h.15v.5c0,.08,0,.13,0,.16,0,.04.03.07.06.1s.07.03.12.03.09-.01.13-.04c.04-.02.07-.06.09-.1.02-.04.02-.1.02-.18v-.49h.15v.91h-.14Z"/>
    <path class="cls-2" d="M14.07,7.51l.15.02c-.02.1-.06.19-.13.24s-.15.09-.25.09c-.12,0-.22-.04-.3-.12-.08-.08-.11-.2-.11-.35,0-.1.02-.18.05-.26.03-.07.08-.13.15-.17.07-.04.14-.05.22-.05.1,0,.18.02.24.07.06.05.1.12.12.21l-.15.02c-.01-.06-.04-.11-.08-.14s-.08-.05-.13-.05c-.08,0-.14.03-.19.08s-.07.14-.07.26.02.21.07.27c.05.06.11.08.18.08.06,0,.11-.02.15-.06.04-.04.07-.09.08-.17Z"/>
    <path class="cls-2" d="M14.69,7.7l.02.14s-.08.01-.12.01c-.06,0-.1,0-.13-.03s-.05-.04-.06-.07c-.01-.03-.02-.09-.02-.18v-.52h-.11v-.12h.11v-.22l.15-.09v.32h.15v.12h-.15v.53s0,.07,0,.08c0,.01.01.02.03.03s.03.01.05.01c.02,0,.04,0,.07,0Z"/>
    <path class="cls-2" d="M15.43,7.84v-.13c-.07.1-.17.15-.29.15-.05,0-.1-.01-.15-.03s-.08-.05-.1-.08c-.02-.03-.04-.07-.05-.11,0-.03,0-.08,0-.14v-.56h.15v.5c0,.08,0,.13,0,.16,0,.04.03.07.06.1s.07.03.12.03.09-.01.13-.04c.04-.02.07-.06.09-.1.02-.04.02-.1.02-.18v-.49h.15v.91h-.14Z"/>
    <path class="cls-2" d="M15.81,7.84v-.91h.14v.14c.04-.06.07-.11.1-.13s.06-.03.1-.03c.05,0,.1.02.16.05l-.05.14s-.08-.03-.11-.03c-.03,0-.06.01-.09.03s-.05.05-.06.08c-.02.05-.03.11-.03.18v.47h-.15Z"/>
    <path class="cls-2" d="M17.01,7.55l.16.02c-.02.09-.07.17-.14.22s-.15.08-.26.08c-.13,0-.24-.04-.32-.12s-.12-.2-.12-.34.04-.27.12-.36c.08-.08.18-.13.31-.13s.22.04.3.12c.08.08.12.2.12.35,0,0,0,.02,0,.04h-.68c0,.1.03.18.08.23.05.05.11.08.19.08.06,0,.1-.01.14-.04.04-.03.07-.08.1-.14ZM16.51,7.3h.51c0-.08-.03-.13-.06-.17-.05-.06-.11-.09-.19-.09-.07,0-.13.02-.18.07-.05.05-.08.11-.08.19Z"/>
    <path class="cls-2" d="M1.68,10.66v.4h-.4v-.4h.4ZM1.62,10.73h-.27v.27h.27v-.27Z"/>
    <path class="cls-2" d="M3,10.95v-.15h.53s0,.46,0,.46c-.08.06-.17.11-.25.15-.09.03-.18.05-.27.05-.12,0-.23-.03-.34-.08s-.18-.13-.23-.23-.08-.21-.08-.33.03-.24.08-.34c.05-.11.12-.18.22-.24.1-.05.21-.08.33-.08.09,0,.17.01.25.04s.13.07.17.12c.04.05.07.12.09.21l-.15.04c-.02-.06-.04-.11-.07-.15-.03-.04-.07-.07-.12-.09-.05-.02-.11-.03-.17-.03-.08,0-.14.01-.2.03-.06.02-.1.05-.13.09-.03.04-.06.08-.08.12-.03.08-.05.16-.05.25,0,.11.02.21.06.28.04.08.09.13.17.17.07.04.15.05.23.05.07,0,.14-.01.21-.04.07-.03.12-.06.16-.09v-.23h-.37Z"/>
    <path class="cls-2" d="M3.75,11.44v-.91h.14v.14c.04-.06.07-.11.1-.13s.06-.03.1-.03c.05,0,.1.02.16.05l-.05.14s-.08-.03-.11-.03c-.03,0-.06.01-.09.03s-.05.05-.06.08c-.02.05-.03.11-.03.18v.47h-.15Z"/>
    <path class="cls-2" d="M4.28,10.98c0-.17.05-.29.14-.37.08-.07.17-.1.29-.1.12,0,.23.04.31.12.08.08.12.19.12.34,0,.12-.02.21-.05.28-.04.07-.09.12-.15.16-.07.04-.14.06-.22.06-.13,0-.23-.04-.31-.12-.08-.08-.12-.2-.12-.35ZM4.44,10.98c0,.12.03.2.08.26.05.06.11.09.19.09s.14-.03.19-.09.08-.15.08-.27c0-.11-.03-.2-.08-.25-.05-.06-.11-.09-.19-.09s-.14.03-.19.09-.08.14-.08.26Z"/>
    <path class="cls-2" d="M5.28,11.51l.15.02s.02.08.05.1c.04.03.09.04.16.04.07,0,.13-.01.17-.04.04-.03.06-.07.08-.12,0-.03.01-.1.01-.2-.07.08-.15.12-.25.12-.12,0-.22-.04-.29-.13-.07-.09-.1-.2-.1-.32,0-.09.02-.17.05-.24.03-.07.08-.13.14-.17.06-.04.13-.06.21-.06.11,0,.2.04.26.13v-.11h.14v.78c0,.14-.01.24-.04.3s-.07.11-.14.14c-.06.03-.14.05-.23.05-.11,0-.2-.02-.26-.07-.07-.05-.1-.12-.1-.22ZM5.41,10.97c0,.12.02.21.07.26.05.05.11.08.18.08s.13-.03.18-.08c.05-.05.07-.14.07-.26s-.02-.19-.07-.25c-.05-.06-.11-.08-.18-.08s-.13.03-.17.08c-.05.06-.07.14-.07.25Z"/>
    <path class="cls-2" d="M6.28,11.44v-.91h.14v.14c.04-.06.07-.11.1-.13s.06-.03.1-.03c.05,0,.1.02.16.05l-.05.14s-.08-.03-.11-.03c-.03,0-.06.01-.09.03s-.05.05-.06.08c-.02.05-.03.11-.03.18v.47h-.15Z"/>
    <path class="cls-2" d="M7.46,11.33c-.06.05-.11.08-.16.1-.05.02-.11.03-.17.03-.1,0-.18-.02-.23-.07-.05-.05-.08-.11-.08-.19,0-.04.01-.08.03-.12.02-.04.05-.07.08-.09s.07-.04.11-.05c.03,0,.08-.02.14-.02.12-.02.22-.03.27-.05,0-.02,0-.03,0-.04,0-.06-.01-.11-.04-.13-.04-.03-.1-.05-.17-.05-.07,0-.13.01-.16.04s-.06.07-.08.13l-.15-.02c.01-.06.04-.12.07-.16s.08-.07.14-.09.13-.03.21-.03.14,0,.19.03c.05.02.08.04.11.07.02.03.04.06.05.1,0,.03,0,.07,0,.14v.21c0,.14,0,.23,0,.27,0,.04.02.07.04.11h-.16s-.03-.07-.03-.11ZM7.44,10.98c-.06.02-.14.04-.25.06-.06,0-.11.02-.13.03-.03.01-.05.03-.06.05s-.02.05-.02.07c0,.04.02.07.05.1.03.03.08.04.14.04s.11-.01.16-.04c.05-.03.08-.06.1-.11.02-.03.02-.09.02-.15v-.06Z"/>
    <path class="cls-2" d="M7.84,11.79v-1.25h.14v.12s.07-.08.11-.1c.04-.02.09-.03.15-.03.08,0,.15.02.2.06.06.04.1.1.13.17.03.07.05.15.05.24,0,.09-.02.18-.05.25-.03.07-.08.13-.15.17s-.13.06-.2.06c-.05,0-.1-.01-.14-.03-.04-.02-.07-.05-.1-.08v.44h-.15ZM7.98,10.99c0,.12.02.2.07.26.05.06.1.08.17.08s.13-.03.18-.09c.05-.06.07-.15.07-.27s-.02-.2-.07-.26c-.05-.06-.1-.09-.17-.09s-.12.03-.17.09c-.05.06-.08.15-.08.27Z"/>
    <path class="cls-2" d="M8.81,11.44v-1.25h.15v.45c.07-.08.16-.12.27-.12.07,0,.13.01.18.04.05.03.08.06.11.11.02.05.03.11.03.2v.57h-.15v-.57c0-.08-.02-.13-.05-.17-.03-.03-.08-.05-.14-.05-.05,0-.09.01-.13.04-.04.02-.07.06-.09.1s-.03.1-.03.17v.5h-.15Z"/>
    <path class="cls-2" d="M9.78,10.36v-.18h.15v.18h-.15ZM9.78,11.44v-.91h.15v.91h-.15Z"/>
    <path class="cls-2" d="M10.76,11.11l.15.02c-.02.1-.06.19-.13.24s-.15.09-.25.09c-.12,0-.22-.04-.3-.12-.08-.08-.11-.2-.11-.35,0-.1.02-.18.05-.26.03-.07.08-.13.15-.17.07-.04.14-.05.22-.05.1,0,.18.02.24.07.06.05.1.12.12.21l-.15.02c-.01-.06-.04-.11-.08-.14s-.08-.05-.13-.05c-.08,0-.14.03-.19.08s-.07.14-.07.26.02.21.07.27c.05.06.11.08.18.08.06,0,.11-.02.15-.06.04-.04.07-.09.08-.17Z"/>
    <path class="cls-2" d="M11.64,11.33c-.06.05-.11.08-.16.1-.05.02-.11.03-.17.03-.1,0-.18-.02-.23-.07-.05-.05-.08-.11-.08-.19,0-.04.01-.08.03-.12.02-.04.05-.07.08-.09s.07-.04.11-.05c.03,0,.08-.02.14-.02.12-.02.22-.03.27-.05,0-.02,0-.03,0-.04,0-.06-.01-.11-.04-.13-.04-.03-.1-.05-.17-.05-.07,0-.13.01-.16.04s-.06.07-.08.13l-.15-.02c.01-.06.04-.12.07-.16s.08-.07.14-.09.13-.03.21-.03.14,0,.19.03c.05.02.08.04.11.07.02.03.04.06.05.1,0,.03,0,.07,0,.14v.21c0,.14,0,.23,0,.27,0,.04.02.07.04.11h-.16s-.03-.07-.03-.11ZM11.62,10.98c-.06.02-.14.04-.25.06-.06,0-.11.02-.13.03-.03.01-.05.03-.06.05s-.02.05-.02.07c0,.04.02.07.05.1.03.03.08.04.14.04s.11-.01.16-.04c.05-.03.08-.06.1-.11.02-.03.02-.09.02-.15v-.06Z"/>
    <path class="cls-2" d="M12.02,11.44v-1.25h.15v1.25h-.15Z"/>
    <path class="cls-2" d="M12.91,11.44v-1.25h.47c.1,0,.17.01.23.04.06.03.1.06.14.12.03.05.05.11.05.17,0,.05-.01.1-.04.15-.03.05-.07.09-.13.11.08.02.13.06.17.11.04.05.06.12.06.19,0,.06-.01.11-.04.16-.02.05-.06.09-.09.12-.04.03-.08.05-.14.06-.06.01-.12.02-.2.02h-.48ZM13.07,10.71h.27c.07,0,.13,0,.16-.01.04-.01.07-.03.1-.06.02-.03.03-.07.03-.11,0-.04,0-.08-.03-.11-.02-.03-.05-.05-.09-.06-.04-.01-.1-.02-.19-.02h-.25v.38ZM13.07,11.29h.31c.05,0,.09,0,.11,0,.04,0,.07-.02.1-.03.03-.02.05-.04.06-.07.02-.03.02-.07.02-.11,0-.05-.01-.09-.04-.12-.02-.03-.06-.06-.1-.07-.04-.01-.1-.02-.18-.02h-.29v.43Z"/>
    <path class="cls-2" d="M14.65,11.33c-.06.05-.11.08-.16.1-.05.02-.11.03-.17.03-.1,0-.18-.02-.23-.07-.05-.05-.08-.11-.08-.19,0-.04.01-.08.03-.12.02-.04.05-.07.08-.09s.07-.04.11-.05c.03,0,.08-.02.14-.02.12-.02.22-.03.27-.05,0-.02,0-.03,0-.04,0-.06-.01-.11-.04-.13-.04-.03-.1-.05-.17-.05-.07,0-.13.01-.16.04s-.06.07-.08.13l-.15-.02c.01-.06.04-.12.07-.16s.08-.07.14-.09.13-.03.21-.03.14,0,.19.03c.05.02.08.04.11.07.02.03.04.06.05.1,0,.03,0,.07,0,.14v.21c0,.14,0,.23,0,.27,0,.04.02.07.04.11h-.16s-.03-.07-.03-.11ZM14.64,10.98c-.06.02-.14.04-.25.06-.06,0-.11.02-.13.03-.03.01-.05.03-.06.05s-.02.05-.02.07c0,.04.02.07.05.1.03.03.08.04.14.04s.11-.01.16-.04c.05-.03.08-.06.1-.11.02-.03.02-.09.02-.15v-.06Z"/>
    <path class="cls-2" d="M15.03,11.44v-.91h.14v.14c.04-.06.07-.11.1-.13s.06-.03.1-.03c.05,0,.1.02.16.05l-.05.14s-.08-.03-.11-.03c-.03,0-.06.01-.09.03s-.05.05-.06.08c-.02.05-.03.11-.03.18v.47h-.15Z"/>
    <path class="cls-2" d="M15.61,11.44v-.91h.14v.14c.04-.06.07-.11.1-.13s.06-.03.1-.03c.05,0,.1.02.16.05l-.05.14s-.08-.03-.11-.03c-.03,0-.06.01-.09.03s-.05.05-.06.08c-.02.05-.03.11-.03.18v.47h-.15Z"/>
    <path class="cls-2" d="M16.2,10.36v-.18h.15v.18h-.15ZM16.2,11.44v-.91h.15v.91h-.15Z"/>
    <path class="cls-2" d="M17.21,11.15l.16.02c-.02.09-.07.17-.14.22s-.15.08-.26.08c-.13,0-.24-.04-.32-.12s-.12-.2-.12-.34.04-.27.12-.36c.08-.08.18-.13.31-.13s.22.04.3.12c.08.08.12.2.12.35,0,0,0,.02,0,.04h-.68c0,.1.03.18.08.23.05.05.11.08.19.08.06,0,.1-.01.14-.04.04-.03.07-.08.1-.14ZM16.7,10.9h.51c0-.08-.03-.13-.06-.17-.05-.06-.11-.09-.19-.09-.07,0-.13.02-.18.07-.05.05-.08.11-.08.19Z"/>
    <path class="cls-2" d="M17.56,11.44v-.91h.14v.14c.04-.06.07-.11.1-.13s.06-.03.1-.03c.05,0,.1.02.16.05l-.05.14s-.08-.03-.11-.03c-.03,0-.06.01-.09.03s-.05.05-.06.08c-.02.05-.03.11-.03.18v.47h-.15Z"/>
    <path class="cls-2" d="M18.08,11.17l.15-.02c0,.06.03.11.07.14.04.03.09.05.16.05s.12-.01.16-.04.05-.06.05-.1c0-.04-.02-.06-.04-.08-.02-.01-.07-.03-.16-.05-.11-.03-.19-.05-.23-.07-.04-.02-.08-.05-.1-.09s-.03-.08-.03-.12c0-.04,0-.08.03-.11.02-.03.04-.06.08-.09.02-.02.06-.03.1-.04.04-.01.09-.02.13-.02.07,0,.13.01.19.03.05.02.09.05.12.08.03.04.04.08.05.14l-.15.02s-.03-.08-.06-.11c-.03-.03-.08-.04-.14-.04-.07,0-.12.01-.15.04-.03.02-.05.05-.05.08,0,.02,0,.04.02.05.01.02.03.03.06.04.02,0,.06.02.14.04.11.03.18.05.23.07s.08.05.1.08c.02.04.04.08.04.13s-.02.1-.04.15c-.03.04-.07.08-.13.1s-.12.04-.19.04c-.12,0-.21-.02-.27-.07-.06-.05-.1-.12-.12-.22Z"/>
    <path class="cls-2" d="M1.68,14.26v.4h-.4v-.4h.4ZM1.62,14.33h-.27v.27h.27v-.27Z"/>
    <path class="cls-2" d="M2.42,15.04v-1.25h.84v.15h-.68v.39h.59v.15h-.59v.57h-.17Z"/>
    <path class="cls-2" d="M4.05,14.93c-.06.05-.11.08-.16.1-.05.02-.11.03-.17.03-.1,0-.18-.02-.23-.07-.05-.05-.08-.11-.08-.19,0-.04.01-.08.03-.12.02-.04.05-.07.08-.09s.07-.04.11-.05c.03,0,.08-.02.14-.02.12-.02.22-.03.27-.05,0-.02,0-.03,0-.04,0-.06-.01-.11-.04-.13-.04-.03-.1-.05-.17-.05-.07,0-.13.01-.16.04s-.06.07-.08.13l-.15-.02c.01-.06.04-.12.07-.16s.08-.07.14-.09.13-.03.21-.03.14,0,.19.03c.05.02.08.04.11.07.02.03.04.06.05.1,0,.03,0,.07,0,.14v.21c0,.14,0,.23,0,.27,0,.04.02.07.04.11h-.16s-.03-.07-.03-.11ZM4.04,14.58c-.06.02-.14.04-.25.06-.06,0-.11.02-.13.03-.03.01-.05.03-.06.05s-.02.05-.02.07c0,.04.02.07.05.1.03.03.08.04.14.04s.11-.01.16-.04c.05-.03.08-.06.1-.11.02-.03.02-.09.02-.15v-.06Z"/>
    <path class="cls-2" d="M4.43,15.04v-.91h.14v.14c.04-.06.07-.11.1-.13s.06-.03.1-.03c.05,0,.1.02.16.05l-.05.14s-.08-.03-.11-.03c-.03,0-.06.01-.09.03s-.05.05-.06.08c-.02.05-.03.11-.03.18v.47h-.15Z"/>
    <path class="cls-2" d="M5.54,15.04v-.79h-.14v-.12h.14v-.1c0-.06,0-.11.02-.14.01-.04.04-.07.08-.1.04-.02.09-.04.16-.04.04,0,.09,0,.14.02l-.02.13s-.06,0-.09,0c-.05,0-.08,0-.1.03-.02.02-.03.06-.03.11v.08h.18v.12h-.18v.79h-.15Z"/>
    <path class="cls-2" d="M5.99,15.04v-.91h.14v.14c.04-.06.07-.11.1-.13s.06-.03.1-.03c.05,0,.1.02.16.05l-.05.14s-.08-.03-.11-.03c-.03,0-.06.01-.09.03s-.05.05-.06.08c-.02.05-.03.11-.03.18v.47h-.15Z"/>
    <path class="cls-2" d="M6.51,14.58c0-.17.05-.29.14-.37.08-.07.17-.1.29-.1.12,0,.23.04.31.12.08.08.12.19.12.34,0,.12-.02.21-.05.28-.04.07-.09.12-.15.16-.07.04-.14.06-.22.06-.13,0-.23-.04-.31-.12-.08-.08-.12-.2-.12-.35ZM6.67,14.58c0,.12.03.2.08.26.05.06.11.09.19.09s.14-.03.19-.09.08-.15.08-.27c0-.11-.03-.2-.08-.25-.05-.06-.11-.09-.19-.09s-.14.03-.19.09-.08.14-.08.26Z"/>
    <path class="cls-2" d="M7.54,15.04v-.91h.14v.13s.07-.08.11-.11c.05-.03.1-.04.16-.04.07,0,.12.01.17.04s.07.07.09.12c.07-.11.17-.16.28-.16.09,0,.16.02.21.07s.07.13.07.23v.62h-.15v-.57c0-.06,0-.11-.02-.13,0-.03-.03-.05-.05-.07-.03-.02-.06-.02-.09-.02-.06,0-.12.02-.16.06s-.06.11-.06.2v.53h-.15v-.59c0-.07-.01-.12-.04-.15-.03-.03-.07-.05-.12-.05-.04,0-.08.01-.12.03-.04.02-.06.06-.08.1-.02.04-.02.11-.02.19v.47h-.15Z"/>
    <path class="cls-2" d="M10.33,13.79h.17v.72c0,.13-.01.23-.04.3-.03.07-.08.13-.15.18s-.17.07-.29.07-.21-.02-.29-.06c-.07-.04-.13-.1-.16-.18-.03-.08-.05-.18-.05-.31v-.72h.17v.72c0,.11.01.19.03.24s.05.09.1.12.11.04.18.04c.12,0,.21-.03.26-.08s.08-.16.08-.32v-.72Z"/>
    <path class="cls-2" d="M10.89,15.04h-.14v-1.25h.15v.45c.06-.08.15-.12.25-.12.06,0,.11.01.16.03s.09.05.12.09c.03.04.06.09.08.15.02.06.03.12.03.18,0,.16-.04.28-.12.36-.08.08-.17.13-.28.13s-.19-.04-.25-.13v.11ZM10.89,14.58c0,.11.01.19.04.24.05.08.11.12.2.12.07,0,.13-.03.17-.09.05-.06.07-.15.07-.26s-.02-.21-.07-.26c-.05-.06-.1-.08-.17-.08s-.12.03-.17.09c-.05.06-.07.14-.07.25Z"/>
    <path class="cls-2" d="M11.72,15.04v-.91h.14v.14c.04-.06.07-.11.1-.13s.06-.03.1-.03c.05,0,.1.02.16.05l-.05.14s-.08-.03-.11-.03c-.03,0-.06.01-.09.03s-.05.05-.06.08c-.02.05-.03.11-.03.18v.47h-.15Z"/>
    <path class="cls-2" d="M12.9,14.93c-.06.05-.11.08-.16.1-.05.02-.11.03-.17.03-.1,0-.18-.02-.23-.07-.05-.05-.08-.11-.08-.19,0-.04.01-.08.03-.12.02-.04.05-.07.08-.09s.07-.04.11-.05c.03,0,.08-.02.14-.02.12-.02.22-.03.27-.05,0-.02,0-.03,0-.04,0-.06-.01-.11-.04-.13-.04-.03-.1-.05-.17-.05-.07,0-.13.01-.16.04s-.06.07-.08.13l-.15-.02c.01-.06.04-.12.07-.16s.08-.07.14-.09.13-.03.21-.03.14,0,.19.03c.05.02.08.04.11.07.02.03.04.06.05.1,0,.03,0,.07,0,.14v.21c0,.14,0,.23,0,.27,0,.04.02.07.04.11h-.16s-.03-.07-.03-.11ZM12.88,14.58c-.06.02-.14.04-.25.06-.06,0-.11.02-.13.03-.03.01-.05.03-.06.05s-.02.05-.02.07c0,.04.02.07.05.1.03.03.08.04.14.04s.11-.01.16-.04c.05-.03.08-.06.1-.11.02-.03.02-.09.02-.15v-.06Z"/>
    <path class="cls-2" d="M13.28,15.04v-.91h.14v.13c.07-.1.16-.15.29-.15.05,0,.1,0,.15.03s.08.05.1.08c.02.03.04.07.05.11,0,.03,0,.08,0,.15v.56h-.15v-.55c0-.06,0-.11-.02-.14-.01-.03-.03-.06-.06-.07-.03-.02-.07-.03-.11-.03-.07,0-.12.02-.17.06s-.07.12-.07.24v.5h-.15Z"/>
    <path class="cls-2" d="M1.68,17.86v.4h-.4v-.4h.4ZM1.62,17.93h-.27v.27h.27v-.27Z"/>
    <path class="cls-2" d="M2.42,18.64v-1.25h.91v.15h-.74v.38h.69v.15h-.69v.43h.77v.15h-.93Z"/>
    <path class="cls-2" d="M3.5,18.37l.15-.02c0,.06.03.11.07.14.04.03.09.05.16.05s.12-.01.16-.04.05-.06.05-.1c0-.04-.02-.06-.04-.08-.02-.01-.07-.03-.16-.05-.11-.03-.19-.05-.23-.07-.04-.02-.08-.05-.1-.09s-.03-.08-.03-.12c0-.04,0-.08.03-.11.02-.03.04-.06.08-.09.02-.02.06-.03.1-.04.04-.01.09-.02.13-.02.07,0,.13.01.19.03.05.02.09.05.12.08.03.04.04.08.05.14l-.15.02s-.03-.08-.06-.11c-.03-.03-.08-.04-.14-.04-.07,0-.12.01-.15.04-.03.02-.05.05-.05.08,0,.02,0,.04.02.05.01.02.03.03.06.04.02,0,.06.02.14.04.11.03.18.05.23.07s.08.05.1.08c.02.04.04.08.04.13s-.02.1-.04.15c-.03.04-.07.08-.13.1s-.12.04-.19.04c-.12,0-.21-.02-.27-.07-.06-.05-.1-.12-.12-.22Z"/>
    <path class="cls-2" d="M4.37,18.37l.15-.02c0,.06.03.11.07.14.04.03.09.05.16.05s.12-.01.16-.04.05-.06.05-.1c0-.04-.02-.06-.04-.08-.02-.01-.07-.03-.16-.05-.11-.03-.19-.05-.23-.07-.04-.02-.08-.05-.1-.09s-.03-.08-.03-.12c0-.04,0-.08.03-.11.02-.03.04-.06.08-.09.02-.02.06-.03.1-.04.04-.01.09-.02.13-.02.07,0,.13.01.19.03.05.02.09.05.12.08.03.04.04.08.05.14l-.15.02s-.03-.08-.06-.11c-.03-.03-.08-.04-.14-.04-.07,0-.12.01-.15.04-.03.02-.05.05-.05.08,0,.02,0,.04.02.05.01.02.03.03.06.04.02,0,.06.02.14.04.11.03.18.05.23.07s.08.05.1.08c.02.04.04.08.04.13s-.02.1-.04.15c-.03.04-.07.08-.13.1s-.12.04-.19.04c-.12,0-.21-.02-.27-.07-.06-.05-.1-.12-.12-.22Z"/>
    <path class="cls-2" d="M5.93,18.35l.16.02c-.02.09-.07.17-.14.22s-.15.08-.26.08c-.13,0-.24-.04-.32-.12s-.12-.2-.12-.34.04-.27.12-.36c.08-.08.18-.13.31-.13s.22.04.3.12c.08.08.12.2.12.35,0,0,0,.02,0,.04h-.68c0,.1.03.18.08.23.05.05.11.08.19.08.06,0,.1-.01.14-.04.04-.03.07-.08.1-.14ZM5.43,18.1h.51c0-.08-.03-.13-.06-.17-.05-.06-.11-.09-.19-.09-.07,0-.13.02-.18.07-.05.05-.08.11-.08.19Z"/>
    <path class="cls-2" d="M6.28,18.64v-.91h.14v.13c.07-.1.16-.15.29-.15.05,0,.1,0,.15.03s.08.05.1.08c.02.03.04.07.05.11,0,.03,0,.08,0,.15v.56h-.15v-.55c0-.06,0-.11-.02-.14-.01-.03-.03-.06-.06-.07-.03-.02-.07-.03-.11-.03-.07,0-.12.02-.17.06s-.07.12-.07.24v.5h-.15Z"/>
    <path class="cls-2" d="M7.59,18.5l.02.14s-.08.01-.12.01c-.06,0-.1,0-.13-.03s-.05-.04-.06-.07c-.01-.03-.02-.09-.02-.18v-.52h-.11v-.12h.11v-.22l.15-.09v.32h.15v.12h-.15v.53s0,.07,0,.08c0,.01.01.02.03.03s.03.01.05.01c.02,0,.04,0,.07,0Z"/>
    <path class="cls-2" d="M7.74,17.56v-.18h.15v.18h-.15ZM7.74,18.64v-.91h.15v.91h-.15Z"/>
    <path class="cls-2" d="M8.72,18.53c-.06.05-.11.08-.16.1-.05.02-.11.03-.17.03-.1,0-.18-.02-.23-.07-.05-.05-.08-.11-.08-.19,0-.04.01-.08.03-.12.02-.04.05-.07.08-.09s.07-.04.11-.05c.03,0,.08-.02.14-.02.12-.02.22-.03.27-.05,0-.02,0-.03,0-.04,0-.06-.01-.11-.04-.13-.04-.03-.1-.05-.17-.05-.07,0-.13.01-.16.04s-.06.07-.08.13l-.15-.02c.01-.06.04-.12.07-.16s.08-.07.14-.09.13-.03.21-.03.14,0,.19.03c.05.02.08.04.11.07.02.03.04.06.05.1,0,.03,0,.07,0,.14v.21c0,.14,0,.23,0,.27,0,.04.02.07.04.11h-.16s-.03-.07-.03-.11ZM8.71,18.18c-.06.02-.14.04-.25.06-.06,0-.11.02-.13.03-.03.01-.05.03-.06.05s-.02.05-.02.07c0,.04.02.07.05.1.03.03.08.04.14.04s.11-.01.16-.04c.05-.03.08-.06.1-.11.02-.03.02-.09.02-.15v-.06Z"/>
    <path class="cls-2" d="M9.1,18.64v-1.25h.15v1.25h-.15Z"/>
    <path class="cls-2" d="M10,18.64v-1.25h.84v.15h-.68v.39h.59v.15h-.59v.57h-.17Z"/>
    <path class="cls-2" d="M11.64,18.53c-.06.05-.11.08-.16.1-.05.02-.11.03-.17.03-.1,0-.18-.02-.23-.07-.05-.05-.08-.11-.08-.19,0-.04.01-.08.03-.12.02-.04.05-.07.08-.09s.07-.04.11-.05c.03,0,.08-.02.14-.02.12-.02.22-.03.27-.05,0-.02,0-.03,0-.04,0-.06-.01-.11-.04-.13-.04-.03-.1-.05-.17-.05-.07,0-.13.01-.16.04s-.06.07-.08.13l-.15-.02c.01-.06.04-.12.07-.16s.08-.07.14-.09.13-.03.21-.03.14,0,.19.03c.05.02.08.04.11.07.02.03.04.06.05.1,0,.03,0,.07,0,.14v.21c0,.14,0,.23,0,.27,0,.04.02.07.04.11h-.16s-.03-.07-.03-.11ZM11.62,18.18c-.06.02-.14.04-.25.06-.06,0-.11.02-.13.03-.03.01-.05.03-.06.05s-.02.05-.02.07c0,.04.02.07.05.1.03.03.08.04.14.04s.11-.01.16-.04c.05-.03.08-.06.1-.11.02-.03.02-.09.02-.15v-.06Z"/>
    <path class="cls-2" d="M12.61,18.31l.15.02c-.02.1-.06.19-.13.24s-.15.09-.25.09c-.12,0-.22-.04-.3-.12-.08-.08-.11-.2-.11-.35,0-.1.02-.18.05-.26.03-.07.08-.13.15-.17.07-.04.14-.05.22-.05.1,0,.18.02.24.07.06.05.1.12.12.21l-.15.02c-.01-.06-.04-.11-.08-.14s-.08-.05-.13-.05c-.08,0-.14.03-.19.08s-.07.14-.07.26.02.21.07.27c.05.06.11.08.18.08.06,0,.11-.02.15-.06.04-.04.07-.09.08-.17Z"/>
    <path class="cls-2" d="M12.89,17.56v-.18h.15v.18h-.15ZM12.89,18.64v-.91h.15v.91h-.15Z"/>
    <path class="cls-2" d="M13.28,18.64v-1.25h.15v1.25h-.15Z"/>
    <path class="cls-2" d="M13.67,17.56v-.18h.15v.18h-.15ZM13.67,18.64v-.91h.15v.91h-.15Z"/>
    <path class="cls-2" d="M14.39,18.5l.02.14s-.08.01-.12.01c-.06,0-.1,0-.13-.03s-.05-.04-.06-.07c-.01-.03-.02-.09-.02-.18v-.52h-.11v-.12h.11v-.22l.15-.09v.32h.15v.12h-.15v.53s0,.07,0,.08c0,.01.01.02.03.03s.03.01.05.01c.02,0,.04,0,.07,0Z"/>
    <path class="cls-2" d="M14.54,17.56v-.18h.15v.18h-.15ZM14.54,18.64v-.91h.15v.91h-.15Z"/>
    <path class="cls-2" d="M15.55,18.35l.16.02c-.02.09-.07.17-.14.22s-.15.08-.26.08c-.13,0-.24-.04-.32-.12s-.12-.2-.12-.34.04-.27.12-.36c.08-.08.18-.13.31-.13s.22.04.3.12c.08.08.12.2.12.35,0,0,0,.02,0,.04h-.68c0,.1.03.18.08.23.05.05.11.08.19.08.06,0,.1-.01.14-.04.04-.03.07-.08.1-.14ZM15.05,18.1h.51c0-.08-.03-.13-.06-.17-.05-.06-.11-.09-.19-.09-.07,0-.13.02-.18.07-.05.05-.08.11-.08.19Z"/>
    <path class="cls-2" d="M15.84,18.37l.15-.02c0,.06.03.11.07.14.04.03.09.05.16.05s.12-.01.16-.04.05-.06.05-.1c0-.04-.02-.06-.04-.08-.02-.01-.07-.03-.16-.05-.11-.03-.19-.05-.23-.07-.04-.02-.08-.05-.1-.09s-.03-.08-.03-.12c0-.04,0-.08.03-.11.02-.03.04-.06.08-.09.02-.02.06-.03.1-.04.04-.01.09-.02.13-.02.07,0,.13.01.19.03.05.02.09.05.12.08.03.04.04.08.05.14l-.15.02s-.03-.08-.06-.11c-.03-.03-.08-.04-.14-.04-.07,0-.12.01-.15.04-.03.02-.05.05-.05.08,0,.02,0,.04.02.05.01.02.03.03.06.04.02,0,.06.02.14.04.11.03.18.05.23.07s.08.05.1.08c.02.04.04.08.04.13s-.02.1-.04.15c-.03.04-.07.08-.13.1s-.12.04-.19.04c-.12,0-.21-.02-.27-.07-.06-.05-.1-.12-.12-.22Z"/>
    <path class="cls-2" d="M1.68,21.46v.4h-.4v-.4h.4ZM1.62,21.53h-.27v.27h.27v-.27Z"/>
    <path class="cls-2" d="M2.41,22.24v-1.25h.47c.08,0,.15,0,.19.01.06.01.11.03.15.06s.08.07.1.12.04.11.04.17c0,.11-.03.2-.1.27-.07.07-.19.11-.37.11h-.32v.51h-.17ZM2.58,21.58h.32c.11,0,.18-.02.23-.06.04-.04.07-.1.07-.17,0-.05-.01-.1-.04-.13-.03-.04-.06-.06-.1-.07-.03,0-.08-.01-.15-.01h-.32v.45Z"/>
    <path class="cls-2" d="M4.15,22.24v-.13c-.07.1-.17.15-.29.15-.05,0-.1-.01-.15-.03s-.08-.05-.1-.08c-.02-.03-.04-.07-.05-.11,0-.03,0-.08,0-.14v-.56h.15v.5c0,.08,0,.13,0,.16,0,.04.03.07.06.1s.07.03.12.03.09-.01.13-.04c.04-.02.07-.06.09-.1.02-.04.02-.1.02-.18v-.49h.15v.91h-.14Z"/>
    <path class="cls-2" d="M4.67,22.24h-.14v-1.25h.15v.45c.06-.08.15-.12.25-.12.06,0,.11.01.16.03s.09.05.12.09c.03.04.06.09.08.15.02.06.03.12.03.18,0,.16-.04.28-.12.36-.08.08-.17.13-.28.13s-.19-.04-.25-.13v.11ZM4.67,21.78c0,.11.01.19.04.24.05.08.11.12.2.12.07,0,.13-.03.17-.09.05-.06.07-.15.07-.26s-.02-.21-.07-.26c-.05-.06-.1-.08-.17-.08s-.12.03-.17.09c-.05.06-.07.14-.07.25Z"/>
    <path class="cls-2" d="M5.5,22.24v-1.25h.15v1.25h-.15Z"/>
    <path class="cls-2" d="M5.9,21.16v-.18h.15v.18h-.15ZM5.9,22.24v-.91h.15v.91h-.15Z"/>
    <path class="cls-2" d="M6.87,21.91l.15.02c-.02.1-.06.19-.13.24s-.15.09-.25.09c-.12,0-.22-.04-.3-.12-.08-.08-.11-.2-.11-.35,0-.1.02-.18.05-.26.03-.07.08-.13.15-.17.07-.04.14-.05.22-.05.1,0,.18.02.24.07.06.05.1.12.12.21l-.15.02c-.01-.06-.04-.11-.08-.14s-.08-.05-.13-.05c-.08,0-.14.03-.19.08s-.07.14-.07.26.02.21.07.27c.05.06.11.08.18.08.06,0,.11-.02.15-.06.04-.04.07-.09.08-.17Z"/>
    <path class="cls-2" d="M7.95,22.24v-1.1h-.41v-.15h.99v.15h-.41v1.1h-.17Z"/>
    <path class="cls-2" d="M8.61,22.24v-.91h.14v.14c.04-.06.07-.11.1-.13s.06-.03.1-.03c.05,0,.1.02.16.05l-.05.14s-.08-.03-.11-.03c-.03,0-.06.01-.09.03s-.05.05-.06.08c-.02.05-.03.11-.03.18v.47h-.15Z"/>
    <path class="cls-2" d="M9.79,22.13c-.06.05-.11.08-.16.1-.05.02-.11.03-.17.03-.1,0-.18-.02-.23-.07-.05-.05-.08-.11-.08-.19,0-.04.01-.08.03-.12.02-.04.05-.07.08-.09s.07-.04.11-.05c.03,0,.08-.02.14-.02.12-.02.22-.03.27-.05,0-.02,0-.03,0-.04,0-.06-.01-.11-.04-.13-.04-.03-.1-.05-.17-.05-.07,0-.13.01-.16.04s-.06.07-.08.13l-.15-.02c.01-.06.04-.12.07-.16s.08-.07.14-.09.13-.03.21-.03.14,0,.19.03c.05.02.08.04.11.07.02.03.04.06.05.1,0,.03,0,.07,0,.14v.21c0,.14,0,.23,0,.27,0,.04.02.07.04.11h-.16s-.03-.07-.03-.11ZM9.78,21.78c-.06.02-.14.04-.25.06-.06,0-.11.02-.13.03-.03.01-.05.03-.06.05s-.02.05-.02.07c0,.04.02.07.05.1.03.03.08.04.14.04s.11-.01.16-.04c.05-.03.08-.06.1-.11.02-.03.02-.09.02-.15v-.06Z"/>
    <path class="cls-2" d="M10.17,22.24v-.91h.14v.13c.07-.1.16-.15.29-.15.05,0,.1,0,.15.03s.08.05.1.08c.02.03.04.07.05.11,0,.03,0,.08,0,.15v.56h-.15v-.55c0-.06,0-.11-.02-.14-.01-.03-.03-.06-.06-.07-.03-.02-.07-.03-.11-.03-.07,0-.12.02-.17.06s-.07.12-.07.24v.5h-.15Z"/>
    <path class="cls-2" d="M11.08,21.97l.15-.02c0,.06.03.11.07.14.04.03.09.05.16.05s.12-.01.16-.04.05-.06.05-.1c0-.04-.02-.06-.04-.08-.02-.01-.07-.03-.16-.05-.11-.03-.19-.05-.23-.07-.04-.02-.08-.05-.1-.09s-.03-.08-.03-.12c0-.04,0-.08.03-.11.02-.03.04-.06.08-.09.02-.02.06-.03.1-.04.04-.01.09-.02.13-.02.07,0,.13.01.19.03.05.02.09.05.12.08.03.04.04.08.05.14l-.15.02s-.03-.08-.06-.11c-.03-.03-.08-.04-.14-.04-.07,0-.12.01-.15.04-.03.02-.05.05-.05.08,0,.02,0,.04.02.05.01.02.03.03.06.04.02,0,.06.02.14.04.11.03.18.05.23.07s.08.05.1.08c.02.04.04.08.04.13s-.02.1-.04.15c-.03.04-.07.08-.13.1s-.12.04-.19.04c-.12,0-.21-.02-.27-.07-.06-.05-.1-.12-.12-.22Z"/>
    <path class="cls-2" d="M12.02,22.59v-1.25h.14v.12s.07-.08.11-.1c.04-.02.09-.03.15-.03.08,0,.15.02.2.06.06.04.1.1.13.17.03.07.05.15.05.24,0,.09-.02.18-.05.25-.03.07-.08.13-.15.17s-.13.06-.2.06c-.05,0-.1-.01-.14-.03-.04-.02-.07-.05-.1-.08v.44h-.15ZM12.16,21.79c0,.12.02.2.07.26.05.06.1.08.17.08s.13-.03.18-.09c.05-.06.07-.15.07-.27s-.02-.2-.07-.26c-.05-.06-.1-.09-.17-.09s-.12.03-.17.09c-.05.06-.08.15-.08.27Z"/>
    <path class="cls-2" d="M12.93,21.78c0-.17.05-.29.14-.37.08-.07.17-.1.29-.1.12,0,.23.04.31.12.08.08.12.19.12.34,0,.12-.02.21-.05.28-.04.07-.09.12-.15.16-.07.04-.14.06-.22.06-.13,0-.23-.04-.31-.12-.08-.08-.12-.2-.12-.35ZM13.09,21.78c0,.12.03.2.08.26.05.06.11.09.19.09s.14-.03.19-.09.08-.15.08-.27c0-.11-.03-.2-.08-.25-.05-.06-.11-.09-.19-.09s-.14.03-.19.09-.08.14-.08.26Z"/>
    <path class="cls-2" d="M13.96,22.24v-.91h.14v.14c.04-.06.07-.11.1-.13s.06-.03.1-.03c.05,0,.1.02.16.05l-.05.14s-.08-.03-.11-.03c-.03,0-.06.01-.09.03s-.05.05-.06.08c-.02.05-.03.11-.03.18v.47h-.15Z"/>
    <path class="cls-2" d="M14.88,22.1l.02.14s-.08.01-.12.01c-.06,0-.1,0-.13-.03s-.05-.04-.06-.07c-.01-.03-.02-.09-.02-.18v-.52h-.11v-.12h.11v-.22l.15-.09v.32h.15v.12h-.15v.53s0,.07,0,.08c0,.01.01.02.03.03s.03.01.05.01c.02,0,.04,0,.07,0Z"/>
    <path class="cls-2" d="M15.62,22.13c-.06.05-.11.08-.16.1-.05.02-.11.03-.17.03-.1,0-.18-.02-.23-.07-.05-.05-.08-.11-.08-.19,0-.04.01-.08.03-.12.02-.04.05-.07.08-.09s.07-.04.11-.05c.03,0,.08-.02.14-.02.12-.02.22-.03.27-.05,0-.02,0-.03,0-.04,0-.06-.01-.11-.04-.13-.04-.03-.1-.05-.17-.05-.07,0-.13.01-.16.04s-.06.07-.08.13l-.15-.02c.01-.06.04-.12.07-.16s.08-.07.14-.09.13-.03.21-.03.14,0,.19.03c.05.02.08.04.11.07.02.03.04.06.05.1,0,.03,0,.07,0,.14v.21c0,.14,0,.23,0,.27,0,.04.02.07.04.11h-.16s-.03-.07-.03-.11ZM15.61,21.78c-.06.02-.14.04-.25.06-.06,0-.11.02-.13.03-.03.01-.05.03-.06.05s-.02.05-.02.07c0,.04.02.07.05.1.03.03.08.04.14.04s.11-.01.16-.04c.05-.03.08-.06.1-.11.02-.03.02-.09.02-.15v-.06Z"/>
    <path class="cls-2" d="M16.34,22.1l.02.14s-.08.01-.12.01c-.06,0-.1,0-.13-.03s-.05-.04-.06-.07c-.01-.03-.02-.09-.02-.18v-.52h-.11v-.12h.11v-.22l.15-.09v.32h.15v.12h-.15v.53s0,.07,0,.08c0,.01.01.02.03.03s.03.01.05.01c.02,0,.04,0,.07,0Z"/>
    <path class="cls-2" d="M16.49,21.16v-.18h.15v.18h-.15ZM16.49,22.24v-.91h.15v.91h-.15Z"/>
    <path class="cls-2" d="M16.82,21.78c0-.17.05-.29.14-.37.08-.07.17-.1.29-.1.12,0,.23.04.31.12.08.08.12.19.12.34,0,.12-.02.21-.05.28-.04.07-.09.12-.15.16-.07.04-.14.06-.22.06-.13,0-.23-.04-.31-.12-.08-.08-.12-.2-.12-.35ZM16.98,21.78c0,.12.03.2.08.26.05.06.11.09.19.09s.14-.03.19-.09.08-.15.08-.27c0-.11-.03-.2-.08-.25-.05-.06-.11-.09-.19-.09s-.14.03-.19.09-.08.14-.08.26Z"/>
    <path class="cls-2" d="M17.85,22.24v-.91h.14v.13c.07-.1.16-.15.29-.15.05,0,.1,0,.15.03s.08.05.1.08c.02.03.04.07.05.11,0,.03,0,.08,0,.15v.56h-.15v-.55c0-.06,0-.11-.02-.14-.01-.03-.03-.06-.06-.07-.03-.02-.07-.03-.11-.03-.07,0-.12.02-.17.06s-.07.12-.07.24v.5h-.15Z"/>
  </g>
</svg>