<?xml version="1.0" encoding="UTF-8"?>
<svg id="Layer_1" data-name="Layer 1" xmlns="http://www.w3.org/2000/svg" viewBox="0 0 22.84 27.52">
  <defs>
    <style>
      .cls-1 {
        fill: #d49d8d;
        font-family: ArialNarrow-Bold, Arial;
        font-size: 4px;
        font-weight: 700;
      }

      .cls-2 {
        stroke-width: .05px;
      }

      .cls-2, .cls-3 {
        fill: none;
        stroke: #fff;
        stroke-miterlimit: 10;
      }

      .cls-4 {
        fill: #f6e1d8;
      }

      .cls-4, .cls-5 {
        stroke-width: 0px;
      }

      .cls-3 {
        stroke-width: .1px;
      }

      .cls-5 {
        fill: #d9805e;
      }
    </style>
  </defs>
  <path class="cls-4" d="M16.06,11.85c1.02,1.13,1.65,2.63,1.65,4.27,0,3.53-2.86,6.39-6.39,6.39s-6.39-2.86-6.39-6.39,2.86-6.39,6.39-6.39v-4.44c-2.75,0-5.2.94-7.25,2.78C-.37,12.07-.73,18.92,3.27,23.36c4,4.44,10.85,4.8,15.29.8,4.44-4,4.8-10.85.8-15.29l-3.31,2.98Z"/>
  <path class="cls-5" d="M16.06,11.85l3.31-2.98c-2.16-2.4-4.82-3.58-8.05-3.58v4.44c1.88,0,3.57.82,4.74,2.12Z"/>
  <g>
    <path class="cls-5" d="M8.18,17.11h-.56v-2.59c-.21.24-.45.41-.73.52v-.62c.16-.06.32-.18.49-.34.17-.16.28-.35.35-.56h.45v3.59Z"/>
    <path class="cls-5" d="M9,16.17l.54-.08c.01.17.06.3.14.39.08.09.17.13.28.13.12,0,.21-.05.29-.16s.12-.25.12-.44c0-.17-.04-.31-.12-.41s-.17-.15-.28-.15c-.07,0-.16.02-.26.05l.06-.56c.15,0,.26-.04.35-.12.08-.08.12-.2.12-.34,0-.12-.03-.22-.09-.29-.06-.07-.14-.1-.23-.1s-.18.04-.25.12c-.07.08-.11.2-.12.36l-.52-.11c.05-.33.16-.56.32-.71.16-.15.35-.22.59-.22.27,0,.48.1.64.29.16.19.24.4.24.63,0,.16-.04.3-.11.42-.07.12-.18.23-.32.33.16.04.3.14.4.29.1.15.15.34.15.56,0,.33-.1.6-.29.81-.19.21-.43.32-.7.32s-.48-.09-.65-.27c-.18-.18-.28-.43-.31-.74Z"/>
    <path class="cls-5" d="M11.42,17.11v-.69h.56v.69h-.56Z"/>
    <path class="cls-5" d="M12.45,16.19l.56-.07c.01.16.06.28.14.37s.17.13.27.13c.12,0,.21-.06.3-.17.08-.11.12-.29.12-.53,0-.22-.04-.39-.12-.5-.08-.11-.19-.16-.31-.16-.16,0-.31.09-.44.26l-.46-.08.29-1.86h1.49v.64h-1.06l-.09.61c.13-.08.26-.11.39-.11.23,0,.43.09.59.27.2.23.31.54.31.92,0,.31-.09.6-.26.87-.17.26-.42.4-.74.4-.26,0-.48-.08-.65-.26-.17-.17-.28-.41-.32-.73Z"/>
    <path class="cls-5" d="M14.65,13.88c0-.19.03-.33.1-.42s.16-.13.27-.13.21.04.28.13.1.23.1.42-.03.33-.1.42-.16.13-.27.13-.21-.04-.28-.13c-.07-.09-.1-.23-.1-.42ZM14.91,13.87c0,.13.01.22.03.26.02.04.05.06.08.06s.07-.02.09-.06c.02-.04.03-.13.03-.26s-.01-.22-.03-.26c-.02-.04-.05-.06-.09-.06s-.06.02-.09.06c-.02.04-.03.13-.03.26ZM15.28,15.53h-.24l.91-2.2h.23l-.9,2.2ZM15.81,14.98c0-.19.03-.33.1-.42s.16-.13.27-.13.21.04.27.13.1.23.1.42-.03.33-.1.42c-.07.09-.16.13-.27.13s-.21-.04-.28-.13-.1-.23-.1-.42ZM16.06,14.98c0,.13.01.22.03.26.02.04.05.06.09.06s.06-.02.09-.06c.02-.04.03-.13.03-.26s-.01-.22-.03-.26c-.02-.04-.05-.06-.09-.06s-.07.02-.09.06c-.02.04-.03.13-.03.26Z"/>
  </g>
  <text class="cls-1" transform="translate(9.57 19.83) scale(.58)"><tspan x="0" y="0">18M</tspan></text>
  <circle class="cls-3" cx="11.32" cy="16.12" r="7.08"/>
  <circle class="cls-3" cx="11.32" cy="16.12" r="10.27"/>
  <circle class="cls-2" cx="11.32" cy="16.12" r="9.93"/>
  <g>
    <path class="cls-5" d="M6.81,2.45V.78h.44c.17,0,.27,0,.32.02.08.03.15.08.2.17.05.08.08.19.08.33,0,.12-.02.22-.07.3-.05.08-.1.14-.17.17-.07.03-.19.05-.35.05h-.18v.63h-.28ZM7.08,1.06v.47h.15c.1,0,.17,0,.21-.02.04-.01.07-.04.09-.08.02-.04.04-.08.04-.14s-.01-.1-.04-.14c-.02-.04-.05-.06-.09-.08-.04-.01-.11-.02-.23-.02h-.13Z"/>
    <path class="cls-5" d="M8.02,1.83c0-.12.02-.23.07-.32.05-.1.11-.17.18-.22.08-.05.16-.07.26-.07.16,0,.28.06.38.19.09.13.14.27.14.44,0,.12-.02.24-.07.34-.05.1-.11.18-.19.23-.08.05-.16.08-.25.08-.15,0-.27-.06-.37-.17-.1-.11-.15-.27-.15-.48ZM8.29,1.84c0,.12.02.22.07.28.05.06.11.09.17.09s.12-.03.17-.09c.05-.06.07-.16.07-.28s-.02-.21-.07-.28c-.05-.06-.11-.09-.17-.09s-.12.03-.17.09c-.05.06-.07.16-.07.28Z"/>
    <path class="cls-5" d="M9.24,1.24h.24v.18c.03-.06.08-.11.13-.15.05-.04.11-.06.18-.06.11,0,.21.05.29.16s.12.26.12.46c0,.21-.04.37-.12.48-.08.11-.18.17-.29.17-.05,0-.1-.01-.15-.04-.04-.03-.09-.07-.14-.14v.61h-.26v-1.67ZM9.5,1.82c0,.14.02.24.07.3.04.06.1.1.16.1.06,0,.11-.03.15-.09.04-.06.06-.16.06-.29s-.02-.22-.06-.29c-.04-.06-.09-.09-.15-.09s-.12.03-.16.09c-.04.06-.06.15-.06.27Z"/>
    <path class="cls-5" d="M11.07,2.45v-.18c-.04.07-.08.12-.14.15-.06.04-.12.06-.19.06s-.12-.02-.18-.05c-.05-.03-.09-.08-.12-.15-.03-.06-.04-.15-.04-.27v-.77h.26v.56c0,.16,0,.26.01.3,0,.04.03.08.05.1.03.02.06.04.1.04.04,0,.08-.02.12-.05.04-.03.06-.07.07-.12s.02-.15.02-.32v-.51h.26v1.21h-.24Z"/>
    <path class="cls-5" d="M11.59,2.45V.78h.26v1.67h-.26Z"/>
    <path class="cls-5" d="M12.31,1.61l-.24-.05c.03-.12.08-.21.14-.26.07-.05.16-.08.29-.08.11,0,.2.02.25.05s.1.07.13.13c.02.05.04.15.04.29v.37c0,.1,0,.18.01.23,0,.05.02.11.05.16h-.26l-.03-.13c-.04.05-.09.09-.14.12-.05.03-.11.04-.16.04-.1,0-.18-.03-.24-.1s-.09-.15-.09-.26c0-.07.01-.13.04-.18.02-.05.06-.09.11-.12.05-.03.12-.06.22-.08.12-.03.21-.05.25-.08,0-.07,0-.11-.01-.13,0-.02-.03-.04-.05-.05-.03-.01-.06-.02-.11-.02s-.08.01-.11.03c-.03.02-.05.06-.07.12ZM12.66,1.87s-.09.03-.16.05c-.08.02-.13.04-.16.07-.03.03-.04.06-.04.1,0,.05.01.09.04.12.03.03.06.05.1.05.04,0,.07-.01.11-.04.04-.03.06-.06.08-.09.01-.03.02-.1.02-.19v-.06Z"/>
    <path class="cls-5" d="M13.63,1.24v.26h-.18v.49c0,.11,0,.17,0,.18.01.03.03.05.06.05.02,0,.06-.01.1-.03l.02.25c-.06.03-.13.05-.21.05-.07,0-.12-.02-.16-.05-.04-.03-.07-.08-.08-.14-.01-.04-.02-.13-.02-.27v-.53h-.12v-.26h.12v-.24l.26-.19v.43h.18Z"/>
    <path class="cls-5" d="M13.82,1.08v-.3h.26v.3h-.26ZM13.82,2.45v-1.21h.26v1.21h-.26Z"/>
    <path class="cls-5" d="M14.29,1.83c0-.12.02-.23.07-.32.05-.1.11-.17.18-.22.08-.05.16-.07.26-.07.16,0,.28.06.38.19.09.13.14.27.14.44,0,.12-.02.24-.07.34-.05.1-.11.18-.19.23-.08.05-.16.08-.25.08-.15,0-.27-.06-.37-.17-.1-.11-.15-.27-.15-.48ZM14.56,1.84c0,.12.02.22.07.28.05.06.11.09.17.09s.12-.03.17-.09c.05-.06.07-.16.07-.28s-.02-.21-.07-.28c-.05-.06-.11-.09-.17-.09s-.12.03-.17.09c-.05.06-.07.16-.07.28Z"/>
    <path class="cls-5" d="M16.42,2.45h-.26v-.62c0-.12,0-.21-.01-.25s-.03-.07-.06-.09-.06-.03-.09-.03c-.04,0-.08.01-.12.04s-.06.07-.07.12c-.01.05-.02.14-.02.28v.55h-.26v-1.21h.24v.18c.04-.07.09-.12.15-.15s.11-.05.18-.05c.08,0,.14.02.19.06.05.04.09.09.11.15.02.06.03.15.03.27v.75Z"/>
    <path class="cls-5" d="M5.16,3.08v-.3h.26v.3h-.26ZM5.16,4.45v-1.21h.26v1.21h-.26Z"/>
    <path class="cls-5" d="M6.59,4.45h-.26v-.62c0-.12,0-.21-.01-.25s-.03-.07-.06-.09-.06-.03-.09-.03c-.04,0-.08.01-.12.04s-.06.07-.07.12c-.01.05-.02.14-.02.28v.55h-.26v-1.21h.24v.18c.04-.07.09-.12.15-.15s.11-.05.18-.05c.08,0,.14.02.19.06.05.04.09.09.11.15.02.06.03.15.03.27v.75Z"/>
    <path class="cls-5" d="M7.27,3.24h.15v-.09c0-.11.01-.19.03-.24.02-.05.06-.09.1-.12.05-.03.1-.04.17-.04.07,0,.15.01.22.04l-.03.22s-.08-.02-.12-.02-.06.01-.08.03-.02.06-.02.13v.09h.2v.25h-.2v.96h-.26v-.96h-.15v-.25Z"/>
    <path class="cls-5" d="M7.96,3.83c0-.12.02-.23.07-.32.05-.1.11-.17.18-.22.08-.05.16-.07.26-.07.16,0,.28.06.38.19.09.13.14.27.14.44,0,.12-.02.24-.07.34-.05.1-.11.18-.19.23-.08.05-.16.08-.25.08-.15,0-.27-.06-.37-.17-.1-.11-.15-.27-.15-.48ZM8.23,3.84c0,.12.02.22.07.28.05.06.11.09.17.09s.12-.03.17-.09c.05-.06.07-.16.07-.28s-.02-.21-.07-.28c-.05-.06-.11-.09-.17-.09s-.12.03-.17.09c-.05.06-.07.16-.07.28Z"/>
    <path class="cls-5" d="M9.13,3.83c0-.12.02-.23.07-.32.05-.1.11-.17.18-.22.08-.05.16-.07.26-.07.16,0,.28.06.38.19.09.13.14.27.14.44,0,.12-.02.24-.07.34-.05.1-.11.18-.19.23-.08.05-.16.08-.25.08-.15,0-.27-.06-.37-.17-.1-.11-.15-.27-.15-.48ZM9.4,3.84c0,.12.02.22.07.28.05.06.11.09.17.09s.12-.03.17-.09c.05-.06.07-.16.07-.28s-.02-.21-.07-.28c-.05-.06-.11-.09-.17-.09s-.12.03-.17.09c-.05.06-.07.16-.07.28Z"/>
    <path class="cls-5" d="M11.27,4.45h-.24v-.18c-.04.07-.09.12-.14.15-.05.03-.11.05-.17.05-.11,0-.21-.06-.29-.17-.08-.11-.12-.27-.12-.47s.04-.36.12-.47c.08-.11.18-.16.3-.16.06,0,.11.01.16.04.05.03.09.07.13.13v-.6h.26v1.67ZM10.57,3.82c0,.11,0,.19.03.25s.05.09.08.12c.03.03.07.04.12.04.06,0,.11-.03.15-.09.04-.06.06-.16.06-.28,0-.14-.02-.24-.06-.3-.04-.06-.09-.09-.16-.09s-.11.03-.15.09c-.04.06-.06.15-.06.27Z"/>
    <path class="cls-5" d="M12.97,4.45h-.24v-.18c-.04.07-.09.12-.14.15-.05.03-.11.05-.17.05-.11,0-.21-.06-.29-.17-.08-.11-.12-.27-.12-.47s.04-.36.12-.47c.08-.11.18-.16.3-.16.06,0,.11.01.16.04.05.03.09.07.13.13v-.6h.26v1.67ZM12.27,3.82c0,.11,0,.19.03.25s.05.09.08.12c.03.03.07.04.12.04.06,0,.11-.03.15-.09.04-.06.06-.16.06-.28,0-.14-.02-.24-.06-.3-.04-.06-.09-.09-.16-.09s-.11.03-.15.09c-.04.06-.06.15-.06.27Z"/>
    <path class="cls-5" d="M13.81,4.07l.26.05c-.03.12-.09.21-.16.27-.07.06-.16.09-.27.09-.15,0-.26-.05-.34-.15-.09-.11-.14-.27-.14-.48s.05-.36.14-.49c.08-.1.18-.15.31-.15.14,0,.25.05.33.16.09.12.14.3.14.53v.04h-.66c0,.1.02.17.06.22s.09.08.15.08c.08,0,.14-.06.17-.17ZM13.82,3.74c0-.09-.02-.17-.06-.21-.04-.05-.08-.07-.14-.07-.06,0-.1.02-.14.07-.04.05-.06.12-.06.21h.39Z"/>
    <path class="cls-5" d="M14.2,4.11l.26-.05c.02.13.09.19.21.19.06,0,.11-.01.14-.04s.05-.06.05-.09c0-.03,0-.05-.02-.06-.01-.02-.04-.03-.09-.04-.22-.06-.35-.11-.41-.16-.07-.06-.11-.15-.11-.27s.04-.2.11-.27.17-.1.31-.1.23.03.3.08c.07.05.12.13.14.24l-.25.06c-.02-.1-.08-.15-.19-.15-.06,0-.11,0-.14.03-.03.02-.04.04-.04.07,0,.03.01.05.04.07.02.02.1.05.23.08.15.04.25.09.3.15.05.06.08.14.08.23,0,.12-.04.21-.12.29-.08.08-.19.11-.33.11-.13,0-.23-.03-.31-.09-.08-.06-.13-.16-.16-.28Z"/>
    <path class="cls-5" d="M15.93,4.07l.26.05c-.03.12-.09.21-.16.27-.07.06-.16.09-.27.09-.15,0-.26-.05-.34-.15-.09-.11-.14-.27-.14-.48s.05-.36.14-.49c.08-.1.18-.15.31-.15.14,0,.25.05.33.16.09.12.14.3.14.53v.04h-.66c0,.1.02.17.06.22s.09.08.15.08c.08,0,.14-.06.17-.17ZM15.95,3.74c0-.09-.02-.17-.06-.21-.04-.05-.08-.07-.14-.07-.06,0-.1.02-.14.07-.04.05-.06.12-.06.21h.39Z"/>
    <path class="cls-5" d="M16.67,4.45h-.26v-1.21h.24v.17c.04-.08.08-.13.11-.16.03-.03.07-.04.11-.04.06,0,.12.02.17.06l-.08.28s-.08-.05-.12-.05c-.04,0-.07.01-.1.04-.03.03-.05.08-.06.15-.01.07-.02.2-.02.39v.37Z"/>
    <path class="cls-5" d="M17.62,3.24v.26h-.18v.49c0,.11,0,.17,0,.18.01.03.03.05.06.05.02,0,.06-.01.1-.03l.02.25c-.06.03-.13.05-.21.05-.07,0-.12-.02-.16-.05-.04-.03-.07-.08-.08-.14-.01-.04-.02-.13-.02-.27v-.53h-.12v-.26h.12v-.24l.26-.19v.43h.18Z"/>
    <path class="cls-5" d="M17.71,4.11l.26-.05c.02.13.09.19.21.19.06,0,.11-.01.14-.04s.05-.06.05-.09c0-.03,0-.05-.02-.06-.01-.02-.04-.03-.09-.04-.22-.06-.35-.11-.41-.16-.07-.06-.11-.15-.11-.27s.04-.2.11-.27.17-.1.31-.1.23.03.3.08c.07.05.12.13.14.24l-.25.06c-.02-.1-.08-.15-.19-.15-.06,0-.11,0-.14.03-.03.02-.04.04-.04.07,0,.03.01.05.04.07.02.02.1.05.23.08.15.04.25.09.3.15.05.06.08.14.08.23,0,.12-.04.21-.12.29-.08.08-.19.11-.33.11-.13,0-.23-.03-.31-.09-.08-.06-.13-.16-.16-.28Z"/>
  </g>
</svg>